<?xml version="1.0" encoding="UTF-8"?>
<svg width="26px" height="26px" viewBox="0 0 26 26" version="1.1" xmlns="http://www.w3.org/2000/svg" xmlns:xlink="http://www.w3.org/1999/xlink">
    <title>BE382E6E-C442-43ED-98EB-632ECDC41131</title>
    <g id="⇢-Styleguide" stroke="none" stroke-width="1" fill="none" fill-rule="evenodd">
        <g id="[Android]-⇢-Assets-⇢-Part-1-25" transform="translate(-328.000000, -1628.000000)" fill-rule="nonzero">
            <g id="categories" transform="translate(0.000000, 177.000000)">
                <g id="category" transform="translate(0.000000, 1442.000000)">
                    <g id="simple" transform="translate(328.000000, 9.000000)">
                        <g id="1inch-1inch-logo" transform="translate(0.000000, 0.812500)">
                            <polygon id="Path" fill="#FFFFFF" points="6.21355932 13.4300037 6.90028249 8.29553973 0.943785311 4.18065967 6.38615819 6.01517991 7.67146893 4.05275487 12.3646893 1.1547976 22.7096045 6.82646177 23.2457627 15.4801349 18.6370056 21.8534483 14.9940678 22.4089205 16.8779661 18.9774175 16.8779661 15.6738193 15.5081921 13.0937969 14.1163842 12.1765367 11.9754237 14.3728448 11.9754237 16.6970577 10.3045198 18.2538418 8.1819209 18.5096514 7.24180791 19.0395427 5.69943503 18.5498501 5.05677966 16.2475637 6.21355932 14.6286544"></polygon>
                            <path d="M15.7248588,4.1368066 C14.590113,3.90292354 13.3488701,3.96504873 13.3488701,3.96504873 C13.3488701,3.96504873 12.9412429,5.83976762 10.4146893,6.33311469 C10.4330508,6.33311469 13.7528249,7.46233133 15.7248588,4.1368066 Z" id="Path" fill="#94A6C3"></path>
                            <path d="M16.7531073,21.1481447 C18.1228814,20.0810532 19.1511299,18.6119753 19.6248588,16.9492129 C19.6468927,16.8870877 19.8378531,16.777455 19.9663842,16.6934033 C20.1793785,16.5654985 20.3960452,16.4595202 20.4364407,16.2877624 C20.520904,15.7980697 20.5649718,15.2864505 20.5649718,14.7748313 C20.5649718,14.5848013 20.370339,14.3911169 20.1793785,14.201087 C20.0288136,14.0731822 19.8782486,13.9233508 19.8782486,13.8173726 C19.6652542,11.8768741 18.7655367,10.0642804 17.329661,8.74503373 L17.179096,8.89486507 C18.570904,10.1958396 19.4706215,11.9645802 19.6652542,13.8392991 C19.6872881,14.011057 19.8562147,14.1791604 20.0288136,14.3509183 C20.1793785,14.4788231 20.3519774,14.6725075 20.3519774,14.7565592 C20.3519774,15.2462519 20.3079096,15.7359445 20.2234463,16.2256372 C20.2014124,16.3096889 20.010452,16.3973951 19.859887,16.4814468 C19.6468927,16.587425 19.4522599,16.6934033 19.4118644,16.8651612 C18.8977401,18.6777549 17.7189266,20.2564655 16.1545198,21.2797039 C16.4336158,20.684033 17.3112994,18.7435345 17.7813559,17.7604948 L17.6968927,14.6067279 L14.9757062,11.9865067 L13.4333333,12.1984633 L11.7403955,14.9283171 C11.7403955,14.9283171 12.5336158,15.9296289 11.4172316,17.1026987 C10.3265537,18.2538418 9.46723164,18.5096514 9.46723164,18.5096514 L8.6740113,18.082084 C8.90903955,17.7824213 9.38276836,17.3365817 9.74632768,17.036919 C10.3669492,16.5252999 10.9875706,16.4814468 10.9875706,15.9296289 C11.0132768,14.7748313 9.76836158,15.0927661 9.76836158,15.0927661 L9.31666667,15.5203336 L9.12570621,17.0990442 L8.18559322,18.2721139 L8.07909605,18.2501874 L6.53672316,17.9103261 C6.53672316,17.9103261 7.48050847,17.4206334 7.63107345,16.8651612 C7.78163842,16.3316154 7.3299435,14.5628748 7.3079096,14.4568966 C7.3299435,14.4788231 7.75960452,14.8406109 7.95056497,15.4362819 C8.2920904,14.4970952 8.74378531,13.6017616 8.87231638,13.5177099 C9.00084746,13.4336582 10.7341808,12.5163981 10.7341808,12.5163981 L10.1576271,14.0293291 L10.5872881,13.795446 L11.6155367,11.2812031 C11.6155367,11.2812031 12.6217514,10.7915105 13.370904,10.7915105 C14.7186441,10.769584 16.7127119,9.12874813 15.8129944,6.18693778 C16.0700565,6.29291604 20.5245763,8.51115067 21.2957627,12.8599138 C21.8723164,16.2037106 19.9663842,19.335551 16.7531073,21.1481447 Z" id="Path" fill="#94A6C3"></path>
                            <path d="M11.6559322,4.60457271 C12.1480226,4.02717391 11.9570621,3.1756934 11.9570621,3.1756934 L10.5211864,5.28794978 C10.4991525,5.28794978 11.0316384,5.30987631 11.6559322,4.60457271 Z" id="Path" fill="#1B314F"></path>
                            <path d="M6.83418079,16.137931 L7.00677966,15.2864505 C7.00677966,15.2864505 6.2980226,16.5216454 6.23559322,16.6934033 C6.16949153,16.8870877 6.27966102,17.226949 6.55508475,17.2050225 C6.83418079,17.183096 7.17570621,16.777455 7.17570621,16.4814468 C7.17570621,16.0977324 6.83418079,16.137931 6.83418079,16.137931 Z" id="Path" fill="#1B314F"></path>
                            <path d="M19.5587571,2.58002249 C19.5587571,2.58002249 20.6310734,2.62387556 21.7437853,2.75178036 C19.2355932,0.789355322 16.8596045,0.215610945 14.9316384,0.215610945 C12.2765537,0.215610945 10.4771186,1.30462894 10.3669492,1.36675412 L11.2042373,0.0438530735 C11.2042373,0.0438530735 7.86242938,-0.277736132 6.68361582,3.24147301 C6.38248588,2.49597076 6.10706215,1.40695277 6.10706215,1.40695277 C6.10706215,1.40695277 4.3700565,2.92353823 5.18531073,5.43778111 C3.19124294,4.7142054 0.34519774,3.70923913 0.235028249,3.69096702 C0.0844632768,3.66904048 0.0403954802,3.73482009 0.0403954802,3.73482009 C0.0403954802,3.73482009 -0.00367231638,3.79694528 0.124858757,3.90657796 C0.363559322,4.09295352 4.86214689,7.40020615 5.85,8.03973013 C5.63700565,8.80715892 5.63700565,9.16894678 5.85,9.53073463 C6.15112994,10.0204273 6.16949153,10.2762369 6.12909605,10.6380247 C6.08502825,10.9998126 5.69943503,14.1353073 5.61497175,14.5190217 C5.53050847,14.9027361 4.63079096,16.2658358 4.67118644,16.6714768 C4.71525424,17.0771177 5.26977401,18.8020052 5.76553672,18.9956897 C6.12909605,19.1235945 7.02881356,19.4013306 7.62740113,19.4013306 C7.84039548,19.4013306 8.03502825,19.3574775 8.11949153,19.2734258 C8.48305085,18.955491 8.58954802,18.8897114 8.84661017,18.8897114 C8.86864407,18.8897114 8.89067797,18.8897114 8.90903955,18.8897114 C9.01553672,18.8897114 9.1440678,18.9116379 9.29463277,18.9116379 C9.63615819,18.9116379 10.0878531,18.8458583 10.4073446,18.5498501 C10.8774011,18.082084 11.6926554,17.44256 11.9497175,17.1428973 C12.2728814,16.7372564 12.4418079,16.1854385 12.3573446,15.6299663 C12.2912429,15.1183471 12.570339,14.6688531 12.8935028,14.2230135 C13.3011299,13.6894678 14.0502825,12.732009 14.0502825,12.732009 C15.530226,13.8356447 16.4519774,15.5203336 16.4519774,17.3950525 C16.4519774,20.7205772 13.5398305,23.406578 9.94096045,23.406578 C9.38276836,23.406578 8.85028249,23.3444528 8.31412429,23.216548 C9.96299435,23.7902924 11.3548023,23.9839768 12.4932203,23.9839768 C14.9132768,23.9839768 16.1985876,23.1105697 16.1985876,23.1105697 C16.1985876,23.1105697 15.750565,23.6879685 15.019774,24.3457646 C15.0418079,24.3457646 15.0418079,24.3457646 15.0418079,24.3457646 C19.0483051,23.7902924 20.9983051,20.5086207 20.9983051,20.5086207 C20.9983051,20.5086207 20.8477401,21.5757121 20.6567797,22.2992879 C25.9853107,18.3123126 25.0855932,13.3240255 25.0635593,13.155922 C25.1076271,13.2180472 25.6437853,13.8575712 25.919209,14.201087 C26.7785311,5.41585457 19.5587571,2.58002249 19.5587571,2.58002249 Z M11.3548023,16.6093516 C11.270339,16.7153298 10.9067797,17.036919 10.6497175,17.2708021 C10.3926554,17.5046852 10.1135593,17.7385682 9.90056497,17.9541792 C9.81610169,18.0382309 9.64350282,18.082084 9.38644068,18.082084 C9.3019774,18.082084 9.21384181,18.082084 9.15141243,18.082084 C9.10734463,18.082084 9.06694915,18.082084 9.02288136,18.082084 C8.97881356,18.082084 8.95677966,18.082084 8.93841808,18.082084 C8.87231638,18.082084 8.80988701,18.082084 8.74378531,18.082084 C9.06694915,17.6545165 10.0070621,16.6751312 10.330226,16.4631747 C10.7158192,16.2073651 10.910452,15.9515555 10.6717514,15.5057159 C10.4367232,15.0562219 9.81610169,15.1658546 9.81610169,15.1658546 C9.81610169,15.1658546 10.179661,15.0160232 10.5028249,15.0160232 C10.0951977,14.910045 9.58107345,15.0160232 9.3460452,15.2499063 C9.08898305,15.4837894 9.13305085,16.3169978 9.02655367,16.8468891 C8.9200565,17.4023613 8.55649718,17.6800975 7.99830508,18.1917166 C7.69717514,18.4694528 7.48418079,18.5535045 7.31158192,18.5535045 C6.9480226,18.4913793 6.51836158,18.3817466 6.21723164,18.2757684 C6.00423729,17.9980322 5.68107345,17.0807721 5.59661017,16.6970577 C5.65903955,16.4851012 5.91610169,16.0356072 6.04463277,15.7797976 C6.30169492,15.2901049 6.45225989,15.0123688 6.49632768,14.7565592 C6.58079096,14.3947714 6.85988701,12.1546102 6.96638418,11.219078 C7.24548023,11.5808658 7.63107345,12.1801912 7.54293785,12.5639055 C8.16355932,11.6904985 7.71553672,10.8353636 7.49887006,10.4955022 C7.3079096,10.1556409 7.05084746,9.47226387 7.26384181,8.74868816 C7.47683616,8.02511244 8.2480226,6.01883433 8.2480226,6.01883433 C8.2480226,6.01883433 8.50508475,6.46832834 8.86864407,6.38062219 C9.23220339,6.29657046 12.1663842,1.90395427 12.1663842,1.90395427 C12.1663842,1.90395427 12.9596045,3.62884183 12.1223164,4.88961769 C11.2666667,6.14673913 10.4293785,6.38062219 10.4293785,6.38062219 C10.4293785,6.38062219 11.6081921,6.59257871 12.6988701,5.80322339 C13.1468927,6.84838831 13.5765537,7.93375187 13.5985876,8.08358321 C13.5324859,8.23341454 12.6768362,10.2798913 12.5923729,10.4077961 C12.5483051,10.4516492 12.2508475,10.5357009 12.0341808,10.579554 C11.6706215,10.6855322 11.4576271,10.7513118 11.3694915,10.813437 C11.2189266,10.9413418 10.5322034,12.8160607 10.2127119,13.7333208 C9.82711864,13.8392991 9.44152542,14.05491 9.16242938,14.4788231 C9.31299435,14.3728448 9.78305085,14.3070652 10.1282486,14.2668666 C10.4293785,14.24494 11.3474576,14.7346327 11.5861582,15.6518928 C11.5861582,15.6738193 11.5861582,15.6738193 11.5861582,15.6957459 C11.6338983,16.0319528 11.5274011,16.353542 11.3548023,16.6093516 Z M9.34237288,16.8651612 C9.53700565,16.587425 9.51497175,16.1196589 9.53700565,15.9698276 C9.55903955,15.8199963 9.59943503,15.5422601 9.7720339,15.5020615 C9.94463277,15.4582084 10.3522599,15.523988 10.3522599,15.8199963 C10.3522599,16.0977324 10.0511299,16.1598576 9.83813559,16.353542 C9.68389831,16.4997189 9.38276836,16.8213081 9.34237288,16.8651612 Z M17.8878531,12.7904798 C18.1008475,11.7051162 18.1228814,10.7659295 18.060452,9.99850075 C18.8940678,11.1057909 19.4081921,12.4506184 19.5587571,13.8356447 C19.580791,14.0074025 19.7497175,14.175506 19.9223164,14.3472639 C20.0728814,14.4751687 20.2454802,14.6469265 20.2454802,14.7529048 C20.2454802,15.2425975 20.2014124,15.7322901 20.1169492,16.2256372 C20.0949153,16.2877624 19.9039548,16.3973951 19.7533898,16.4814468 C19.5403955,16.587425 19.3457627,16.6934033 19.3053672,16.8651612 C18.8353107,18.505997 17.8254237,19.9568028 16.4776836,20.9800412 C18.4680791,18.9116379 19.430226,15.498407 17.8878531,12.7904798 Z M16.540113,21.1700712 C17.9319209,20.1029798 19.0042373,18.6119753 19.4742938,16.9272864 C19.4963277,16.8651612 19.6872881,16.7555285 19.8158192,16.6714768 C20.0288136,16.5654985 20.2454802,16.4375937 20.2858757,16.2658358 C20.370339,15.7761432 20.4144068,15.264524 20.4144068,14.7529048 C20.4144068,14.5628748 20.219774,14.3691904 20.0288136,14.1791604 C19.9223164,14.0512556 19.7497175,13.9014243 19.7497175,13.795446 C19.5771186,12.2386619 18.9564972,10.769584 17.9943503,9.55266117 C17.5646893,6.99456522 15.8533898,6.2052099 15.809322,6.18328336 C15.8533898,6.24906297 16.9661017,7.84604573 16.1949153,9.72076462 C15.4016949,11.61741 13.3672316,11.3214018 13.1946328,11.3396739 C13.0220339,11.3396739 12.3610169,12.1911544 11.5237288,13.7698651 C11.4172316,13.726012 10.9655367,13.6200337 10.4514124,13.7077399 C10.8370056,12.6406484 11.4172316,11.1277174 11.5237288,10.9998126 C11.5677966,10.9559595 11.8872881,10.8719078 12.1039548,10.8097826 C12.5115819,10.7038043 12.7025424,10.6380247 12.7686441,10.553973 C12.8127119,10.4881934 13.0257062,9.99850075 13.2387006,9.48688156 C13.4333333,9.48688156 13.9254237,9.44302849 13.9658192,9.42110195 C14.009887,9.37724888 14.4175141,8.33573838 14.4175141,8.20783358 C14.4175141,8.10185532 13.580226,6.03345202 13.2607345,5.2440967 C13.4112994,5.07233883 13.5618644,4.86038231 13.7087571,4.62649925 C18.1008475,5.09791979 21.530791,8.80715892 21.530791,13.302099 C21.530791,16.7555285 19.4963277,19.7631184 16.540113,21.1700712 Z" id="Shape" fill="#1B314F"></path>
                            <path d="M10.840678,9.65863943 C11.2483051,9.19087331 11.0353107,8.31746627 10.2824859,8.16763493 C10.4771186,7.72179535 10.7525424,6.82646177 10.7525424,6.82646177 C10.7525424,6.82646177 8.56751412,10.2360382 8.37655367,10.3018178 C8.1819209,10.3675975 7.99096045,9.61844078 7.99096045,9.61844078 C7.58333333,11.1752249 8.67768362,11.3871814 8.80621469,10.8974888 C9.40480226,10.744003 10.4330508,10.104479 10.840678,9.65863943 Z" id="Path" fill="#1B314F"></path>
                            <path d="M8.97514124,10.4881934 L10.0878531,8.59154798 C10.0878531,8.59154798 10.7305085,8.91313718 10.4073446,9.42475637 C10.0033898,10.0204273 8.97514124,10.4881934 8.97514124,10.4881934 Z" id="Path" fill="#FFD923"></path>
                            <path d="M22.75,19.2734258 C22.4268362,19.7009933 22.0632768,20.1468328 21.6372881,20.5744003 C24.3988701,15.2864505 21.7658192,10.4479948 21.659322,10.2579648 C21.8539548,10.4516492 22.0449153,10.6636057 22.2175141,10.8536357 C24.3364407,13.1961207 24.5935028,16.7153298 22.75,19.2734258 Z" id="Path" fill="#D82122"></path>
                            <path d="M25.3206215,12.472545 C24.3548023,9.89252249 22.9850282,7.69621439 19.9663842,5.71551724 C17.0542373,3.79694528 13.9254237,3.94677661 13.7528249,3.96870315 C13.730791,3.96870315 13.7087571,3.96870315 13.7087571,3.96870315 C13.8152542,3.92485007 13.9217514,3.90292354 14.0282486,3.88465142 C14.6929379,3.6726949 15.5485876,3.50093703 16.4079096,3.39495877 C18.6810734,3.06971514 20.9725989,3.83714393 22.5370056,5.48163418 C22.5590395,5.50356072 22.5590395,5.50356072 22.5810734,5.52548726 C24.3584746,7.40020615 25.280226,9.74269115 25.3206215,12.472545 Z" id="Path" fill="#D82122"></path>
                            <path d="M19.279661,1.91857196 C16.0884181,1.32290105 14.0319209,1.6189093 12.5519774,2.17438156 C12.5079096,2.00262369 12.3573446,1.66276237 12.2288136,1.38502624 C11.7844633,1.91857196 11.3107345,2.55809595 11.0132768,2.96373688 C10.1980226,3.51920915 9.85649718,4.05275487 9.85649718,4.05275487 C10.3265537,2.45211769 11.7,1.26077586 13.370904,0.961113193 C13.8409605,0.877061469 14.3550847,0.833208396 14.9132768,0.833208396 C16.389548,0.855134933 17.8658192,1.21692279 19.279661,1.91857196 Z" id="Path" fill="#D82122"></path>
                            <path d="M7.47683616,6.01152549 C4.97231638,5.92747376 5.8059322,3.02586207 5.85,2.85775862 C5.85,2.87968516 6.01892655,5.13811844 7.47683616,6.01152549 Z" id="Path" fill="#D82122"></path>
                            <path d="M9.94096045,0.789355322 C8.01299435,1.9404985 8.39858757,4.68862444 8.39858757,4.68862444 C6.55508475,1.90029985 9.79039548,0.855134933 9.94096045,0.789355322 Z" id="Path" fill="#D82122"></path>
                            <path d="M6.77175141,6.77895427 C6.90028249,6.88493253 7.02881356,7.07861694 6.87824859,7.35635307 C6.79378531,7.50618441 6.66525424,7.48425787 6.47062147,7.40020615 C6.21355932,7.27230135 4.67118644,6.37696777 3.27937853,5.45970765 C4.86581921,6.01517991 6.47062147,6.61085082 6.72768362,6.73875562 C6.72768362,6.73875562 6.74971751,6.76068216 6.77175141,6.77895427 Z" id="Path" fill="#FFFFFF"></path>
                        </g>
                    </g>
                </g>
            </g>
        </g>
    </g>
</svg>