<?xml version="1.0" encoding="UTF-8"?>
<svg width="26px" height="26px" viewBox="0 0 26 26" version="1.1" xmlns="http://www.w3.org/2000/svg" xmlns:xlink="http://www.w3.org/1999/xlink">
    <title>BB0859DD-334C-4078-8304-65031D923E0A</title>
    <defs>
        <linearGradient x1="87.2792784%" y1="18.632268%" x2="12.8792784%" y2="81.232268%" id="linearGradient-1">
            <stop stop-color="#B6509E" offset="0%"></stop>
            <stop stop-color="#2EBAC6" offset="100%"></stop>
        </linearGradient>
    </defs>
    <g id="⇢-Styleguide" stroke="none" stroke-width="1" fill="none" fill-rule="evenodd">
        <g id="[Android]-⇢-Assets-⇢-Part-1-25" transform="translate(-328.000000, -1178.000000)" fill-rule="nonzero">
            <g id="categories" transform="translate(0.000000, 177.000000)">
                <g id="category" transform="translate(0.000000, 992.000000)">
                    <g id="aave-aave-logo" transform="translate(328.000000, 9.000000)">
                        <circle id="Oval" fill="url(#linearGradient-1)" cx="13" cy="13" r="13"></circle>
                        <path d="M18.6891753,18.1798969 L14.293299,7.55206186 C14.0453608,7.00257732 13.6768041,6.73453608 13.1909794,6.73453608 L12.8023196,6.73453608 C12.3164948,6.73453608 11.9479381,7.00257732 11.7,7.55206186 L9.78685567,12.1824742 L8.33943299,12.1824742 C7.90721649,12.1858247 7.55541237,12.5342784 7.55206186,12.9698454 L7.55206186,12.9798969 C7.55541237,13.4121134 7.90721649,13.7639175 8.33943299,13.767268 L9.11675258,13.767268 L7.29072165,18.1798969 C7.25721649,18.2770619 7.2371134,18.3775773 7.2371134,18.4814433 C7.2371134,18.7293814 7.31417526,18.9237113 7.45154639,19.0744845 C7.58891753,19.2252577 7.78659794,19.2989691 8.03453608,19.2989691 C8.19871134,19.2956186 8.35618557,19.2453608 8.48685567,19.1481959 C8.62757732,19.0510309 8.72474227,18.9103093 8.80180412,18.7494845 L10.8121134,13.7639175 L12.2059278,13.7639175 C12.6381443,13.760567 12.9899485,13.4121134 12.993299,12.9765464 L12.993299,12.9564433 C12.9899485,12.5242268 12.6381443,12.1724227 12.2059278,12.1690722 L11.4621134,12.1690722 L12.9966495,8.34613402 L17.1780928,18.746134 C17.2551546,18.9069588 17.3523196,19.0476804 17.4930412,19.1448454 C17.6237113,19.2420103 17.7845361,19.292268 17.9453608,19.2956186 C18.193299,19.2956186 18.3876289,19.2219072 18.5283505,19.071134 C18.6690722,18.9203608 18.7427835,18.7260309 18.7427835,18.4780928 C18.746134,18.3775773 18.7293814,18.2737113 18.6891753,18.1798969 Z" id="Path" fill="#FFFFFF"></path>
                    </g>
                </g>
            </g>
        </g>
    </g>
</svg>