<?xml version="1.0" encoding="UTF-8"?>
<svg width="26px" height="26px" viewBox="0 0 26 26" version="1.1" xmlns="http://www.w3.org/2000/svg" xmlns:xlink="http://www.w3.org/1999/xlink">
    <title>C1EB05B7-AB82-4986-9A5A-064948E45A12</title>
    <g id="⇢-Styleguide" stroke="none" stroke-width="1" fill="none" fill-rule="evenodd">
        <g id="[Android]-⇢-Assets-⇢-Part-1-25" transform="translate(-328.000000, -1403.000000)">
            <g id="categories" transform="translate(0.000000, 177.000000)">
                <g id="category" transform="translate(0.000000, 1217.000000)">
                    <g id="alpha-finance-lab-alpha-logo" transform="translate(328.000000, 9.000000)">
                        <g id="Group-3" fill="#29B2FF">
                            <path d="M13,0 C5.824,0 0,5.824 0,13 C0,20.176 5.824,26 13,26 C20.176,26 26,20.176 26,13 C26,5.824 20.176,0 13,0" id="Fill-1"></path>
                        </g>
                        <polygon id="Fill-4" fill="#FFFFFF" points="9.282 8.996 3.302 16.952 4.524 16.952 5.824 15.21 9.984 15.21 9.984 14.222 6.552 14.222 10.478 8.996"></polygon>
                        <polygon id="Fill-6" fill="#FFFFFF" points="22.698 16.952 16.718 8.996 15.522 8.996 19.448 14.222 16.016 14.222 16.016 15.21 20.176 15.21 21.476 16.952"></polygon>
                        <polygon id="Fill-8" fill="#FFFFFF" points="12.506 16.952 13.494 16.952 13.494 4.654 12.506 4.654"></polygon>
                        <polygon id="Fill-15" fill="#FFFFFF" points="5.72 15.002 9.802 15.002 9.802 14.43 5.72 14.43"></polygon>
                        <polygon id="Stroke-16" stroke="#FFFFFF" stroke-width="1.4925" points="5.72 15.002 9.802 15.002 9.802 14.43 5.72 14.43"></polygon>
                        <polygon id="Fill-17" fill="#FFFFFF" points="16.198 15.002 20.28 15.002 20.28 14.43 16.198 14.43"></polygon>
                        <polygon id="Stroke-18" stroke="#FFFFFF" stroke-width="1.4925" points="16.198 15.002 20.28 15.002 20.28 14.43 16.198 14.43"></polygon>
                    </g>
                </g>
            </g>
        </g>
    </g>
</svg>