<?xml version="1.0" encoding="UTF-8"?>
<svg width="26px" height="27px" viewBox="0 0 26 27" version="1.1" xmlns="http://www.w3.org/2000/svg" xmlns:xlink="http://www.w3.org/1999/xlink">
    <title>FBDF356B-9489-4497-8AB2-3263F70794DE</title>
    <g id="⇢-Styleguide" stroke="none" stroke-width="1" fill="none" fill-rule="evenodd">
        <g id="[Android]-⇢-Assets-⇢-Part-51-75" transform="translate(-328.000000, -1931.000000)" fill-rule="nonzero">
            <g id="categories" transform="translate(0.000000, 177.000000)">
                <g id="category" transform="translate(0.000000, 1745.000000)">
                    <g id="simple" transform="translate(328.000000, 9.000000)">
                        <g id="Arbitrum_Symbol_-_Full_color_-_White_background" transform="translate(2.022891, 0.000000)">
                            <path d="M14.2454931,11.9016337 L16.1187691,8.66500823 L21.1680606,16.6727942 L21.1704775,18.2096296 L21.1540323,7.63458436 C21.1420531,7.3760823 21.0072344,7.1396214 20.7921865,7.00015226 L11.7015387,1.67576955 C11.4890127,1.56930864 11.2192177,1.57053909 11.0069544,1.67913992 C10.9782673,1.69369136 10.9512615,1.70963374 10.9256218,1.72702058 L10.8938874,1.7472963 L2.07003984,6.95382305 L2.03583603,6.96965844 C1.99180716,6.99025514 1.94725289,7.01646914 1.9055358,7.04690947 C1.73819457,7.16904527 1.62712413,7.34970782 1.59118649,7.55235802 C1.58577483,7.58306584 1.58178176,7.61430864 1.57994284,7.64592593 L1.59381351,16.263535 L6.29696882,8.84096296 C6.88915185,7.85676132 8.17922921,7.53973251 9.37688799,7.55695885 L10.7825017,7.5947284 L2.5002933,21.1191152 L3.47659931,21.6913827 L11.8579515,7.60847737 L15.5625762,7.59478189 L7.20281813,22.0330741 L10.6865629,24.0733786 L11.1027881,24.3171152 C11.278851,24.3899794 11.4864382,24.3936708 11.6639723,24.3283498 L20.8823458,18.888786 L19.1199301,19.928679 L14.2454931,11.9016337 Z M14.9601478,22.3832716 L11.4415687,16.7602099 L13.5894734,13.0490041 L18.2105081,20.4653169 L14.9601478,22.3832716 Z" id="Shape" fill="#2D374B"></path>
                            <polygon id="Path" fill="#28A0F0" points="11.4416212 16.7601564 14.9601478 22.3832716 18.2105606 20.4652634 13.5894734 13.0489506"></polygon>
                            <path d="M21.1704775,18.2095761 L21.1680606,16.6727407 L16.1187691,8.66495473 L14.2454931,11.9015802 L19.1198776,19.928572 L20.8822933,18.888679 C21.0551513,18.745679 21.1597592,18.5359136 21.1707402,18.3095638 L21.1704775,18.2095761 Z" id="Path" fill="#28A0F0"></path>
                            <path d="M0.011506351,19.6588354 L2.5002933,21.1191152 L10.7824492,7.59478189 L9.37683545,7.55701235 C8.17917667,7.53978601 6.88904677,7.85681481 6.29691628,8.84101646 L1.59376097,16.2635885 L0.011506351,18.7389918 L0.011506351,19.6588354 Z" id="Path" fill="#FFFFFF"></path>
                            <polygon id="Path" fill="#FFFFFF" points="15.5625762 7.59478189 11.8579515 7.60847737 3.47659931 21.6913827 6.40614781 23.4088272 7.20281813 22.0330741"></polygon>
                            <path d="M22.7316109,7.57536214 C22.700612,6.78648148 22.2811293,6.06431276 21.6240589,5.64387243 L12.4142494,0.251012346 C11.7642719,-0.0822263374 10.9523124,-0.082654321 10.301179,0.250798354 C10.2242073,0.290333333 1.34487702,5.53382716 1.34487702,5.53382716 C1.22198499,5.59385185 1.10361143,5.6653251 0.992278291,5.74648148 C0.40571709,6.17451852 0.0481795612,6.83971193 0.0114538106,7.57049383 L0.0114538106,18.7389918 L1.59370843,16.2635885 L1.5798903,7.64597942 C1.58172921,7.61446914 1.58561721,7.58344033 1.59113395,7.55283951 C1.62691397,7.3500823 1.73808949,7.16920576 1.90548326,7.04696296 C1.94725289,7.01652263 10.9782673,1.69374486 11.0069544,1.67913992 C11.2192177,1.57059259 11.4890127,1.56930864 11.7015387,1.67576955 L20.7921865,7.00004527 C21.0072344,7.1395144 21.1420531,7.37597531 21.1540323,7.63447737 L21.1540323,18.3095638 C21.1430514,18.5359136 21.0551513,18.745679 20.8822933,18.888679 L19.1198776,19.928572 L18.2105081,20.4652099 L14.9601478,22.3832181 L11.6639197,24.3282428 C11.4863857,24.3935638 11.2787985,24.3898724 11.1027356,24.3170082 L7.20276559,22.0330206 L6.40609527,23.4088272 L9.91085624,25.4634691 C10.0267604,25.5306091 10.1300023,25.5900988 10.21475,25.6385144 C10.3459434,25.7134115 10.4353672,25.7635391 10.466944,25.7791605 C10.7160381,25.9023663 11.0744688,25.9740535 11.3974348,25.9740535 C11.6935525,25.9740535 11.9823147,25.9186831 12.2555248,25.8097078 L21.8297021,20.1640165 C22.3792223,19.7304691 22.7025035,19.0766708 22.7316109,18.3684115 L22.7316109,7.57536214 Z" id="Path" fill="#96BEDC"></path>
                        </g>
                    </g>
                </g>
            </g>
        </g>
    </g>
</svg>