<?xml version="1.0" encoding="UTF-8"?>
<svg width="26px" height="26px" viewBox="0 0 26 26" version="1.1" xmlns="http://www.w3.org/2000/svg" xmlns:xlink="http://www.w3.org/1999/xlink">
    <title>998C7C22-CE19-487F-82DC-42FD323421AE</title>
    <g id="⇢-Styleguide" stroke="none" stroke-width="1" fill="none" fill-rule="evenodd">
        <g id="[Android]-⇢-Assets-⇢-Part-51-75" transform="translate(-328.000000, -1706.000000)">
            <g id="categories" transform="translate(0.000000, 177.000000)">
                <g id="category" transform="translate(0.000000, 1520.000000)">
                    <g id="🧿Icon/05.Networks/Coin/Avalanche/Color" transform="translate(328.000000, 9.000000)">
                        <rect id="Rectangle" fill="#FFFFFF" fill-rule="nonzero" x="4.96473719" y="4.44873502" width="16.0532269" height="14.6098535"></rect>
                        <path d="M26,13 C26,20.1797736 20.1797736,26 13,26 C5.82029561,26 0,20.1797736 0,13 C0,5.82029561 5.82029561,-2.88657986e-15 13,-2.88657986e-15 C20.1797736,-2.88657986e-15 26,5.82029561 26,13 Z M9.31617044,18.1733422 L6.79323569,18.1733422 C6.26309188,18.1733422 6.00122237,18.1733422 5.8415526,18.0712117 C5.66909055,17.9593875 5.56370573,17.7741678 5.55093076,17.5697337 C5.54134088,17.3813981 5.67229294,17.1513795 5.93416245,16.691498 L12.1636032,5.71125832 C12.4286751,5.24498935 12.5627949,5.01185486 12.7320546,4.92563249 C12.9140892,4.83302264 13.1312636,4.83302264 13.3132983,4.92563249 C13.4825579,5.01185486 13.6166951,5.24498935 13.8817497,5.71125832 L15.1623968,7.94677364 L15.1689228,7.95818109 C15.455217,8.45839547 15.6003981,8.71205992 15.6637883,8.97829161 C15.7340333,9.26891345 15.7340333,9.57549534 15.6637883,9.86611718 C15.5999134,10.1343742 15.4562037,10.3898735 15.1655819,10.8976525 L11.8934075,16.6819254 L11.8849427,16.696743 C11.5967617,17.2010772 11.450715,17.4566977 11.2483063,17.649534 C11.0279467,17.8603728 10.7628748,18.0135686 10.472253,18.0999467 C10.2071811,18.1733422 9.91018908,18.1733422 9.31617044,18.1733422 Z M15.6874168,18.1733422 L19.30249,18.1733422 C19.8358189,18.1733422 20.1041278,18.1733422 20.2639015,18.0680959 C20.4363116,17.9562716 20.5448469,17.767763 20.5545406,17.563502 C20.563715,17.381225 20.4356192,17.1601731 20.1846205,16.7270186 C20.1759654,16.7122703 20.1673103,16.6972623 20.158482,16.6819947 L18.3476565,13.584221 L18.3270573,13.5493409 C18.0725965,13.1190426 17.9441545,12.901747 17.7791877,12.8177577 C17.597257,12.7251305 17.3831292,12.7251305 17.2011811,12.8177577 C17.0351065,12.90398 16.9009867,13.130727 16.6359148,13.5874061 L14.8315286,16.6851971 L14.8253489,16.6958602 C14.5612117,17.1518123 14.4292037,17.3796671 14.4387244,17.5666178 C14.4514993,17.7710519 14.5568842,17.9593875 14.7293289,18.0712117 C14.8858309,18.1733422 15.1540879,18.1733422 15.6874168,18.1733422 Z" id="Shape" fill="#E84142"></path>
                    </g>
                </g>
            </g>
        </g>
    </g>
</svg>