<?xml version="1.0" encoding="UTF-8"?>
<svg width="26px" height="27px" viewBox="0 0 26 27" version="1.1" xmlns="http://www.w3.org/2000/svg" xmlns:xlink="http://www.w3.org/1999/xlink">
    <title>A8DAA983-A5C8-44DD-A1C3-375AB62A91DA</title>
    <g id="⇢-Styleguide" stroke="none" stroke-width="1" fill="none" fill-rule="evenodd">
        <g id="[Android]-⇢-Assets-⇢-Part-51-75" transform="translate(-328.000000, -956.000000)" fill="#000000" fill-rule="nonzero">
            <g id="categories" transform="translate(0.000000, 177.000000)">
                <g id="category" transform="translate(0.000000, 770.000000)">
                    <g id="🧿Icon/05.Networks/Coin/BeefyFinance/Color" transform="translate(328.000000, 9.000000)">
                        <path d="M9.98318723,4.30029076 C10.0292788,4.43611684 10.0292788,4.57194292 10.0523245,4.75304436 L10.0523245,5.52272548 L11.8268491,5.52272548 C12.0573069,5.52272548 12.2647188,5.59063852 12.4029935,5.7264646 C12.5412681,5.86229068 12.6104054,6.06602981 12.5873597,6.29240661 C12.5873597,6.63197181 12.449085,6.92626165 12.3338562,7.19791381 C12.0573069,7.83176885 11.6424829,8.32979781 11.1124301,8.69200069 L19.3484135,8.6923544 C20.4935004,8.69341555 21.5348813,8.69766011 22.5892255,8.71463837 C24.064155,8.73727605 25.3547183,9.66542093 25.8156338,11.0689571 C25.9308627,11.4085223 25.9769542,11.7933629 26,12.2461165 L26,15.6644061 C26,15.8455076 26,16.0718844 25.8847711,16.2756235 L25.285581,16.7510148 L25.2625352,16.7510148 C25.1242606,16.7510148 24.9398944,16.7283771 24.7555282,16.6378264 L24.6402993,16.592551 L24.6172536,16.524638 C24.4098416,16.2982612 24.3867958,16.0039713 24.3867958,15.7549569 L24.3867958,12.1782034 C24.3867958,11.5443484 24.0180635,10.9557687 23.4649649,10.6388412 C23.7645599,11.1821455 23.9258804,11.7480875 23.9028346,12.3593049 C23.9028346,12.7441454 23.8797888,13.128986 23.856743,13.4911889 C23.856743,13.6722903 23.8336973,13.8307541 23.8336973,14.0118555 L23.8106515,14.6909859 C23.7876057,15.1211018 23.7645599,15.5285801 23.7415142,15.958696 C23.7184684,16.2982612 23.6954226,16.6151887 23.6723768,16.9547539 C23.6493311,17.2037684 23.6493311,17.4527829 23.6262853,17.7017973 C23.6262853,17.8828988 23.6032395,18.0640002 23.6032395,18.2451017 C23.6032395,18.4035654 23.5801938,18.5393915 23.5801938,18.6978553 C23.557148,19.0374205 23.5341022,19.354348 23.5341022,19.6939132 L23.4649649,20.7352465 C23.4419191,21.0748117 23.4188733,21.4370146 23.4188733,21.7765798 C23.3958276,22.2972464 22.9349121,22.7273623 22.4279051,22.7273623 L19.685458,22.7273623 C19.2245425,22.7273623 18.8097186,22.3651594 18.7175355,21.9124058 C18.6483982,21.5954783 18.5792608,21.2559131 18.5101235,20.9389856 L18.3718489,20.3277682 C18.3257573,20.1466668 18.3027116,19.988203 18.25662,19.8071016 L12.8639089,19.8071016 L12.8178174,19.9655654 C12.7486801,20.2372175 12.6795428,20.5088697 12.6334512,20.8031595 L12.5412681,21.2559131 C12.4951766,21.5049276 12.4260392,21.7313044 12.3799477,21.9803189 C12.2647188,22.4330725 11.8729407,22.75 11.435071,22.75 L8.6926239,22.75 C8.13952533,22.75 7.70165562,22.2972464 7.70165562,21.7086667 C7.70165562,21.5049276 7.70165562,21.2785508 7.67860985,21.0748117 C7.67860985,20.8484349 7.67860985,20.6446958 7.65556408,20.418319 C7.65556408,20.0334784 7.6325183,19.6486378 7.60947253,19.2637973 L7.54033521,17.5659713 L7.54033521,17.2037684 C7.54033521,17.158493 7.51728943,17.09058 7.44815211,16.9321162 C7.40206056,16.8415655 7.33292324,16.7962901 7.21769437,16.7962901 L4.61352194,16.7962901 L4.42915575,16.7736525 L4.31392688,16.7283771 C3.16163819,16.5020003 2.37808188,15.8002322 2.03239528,14.6457105 C1.96325795,14.4419714 1.94021218,14.1929569 1.94021218,13.8986671 L1.94021218,9.03156589 C1.94021218,9.03156589 1.91716641,9.03156589 1.89412063,9.00892821 C1.041427,8.57881229 0.465282659,7.89968189 0.142641826,6.94889933 C0.0735045044,6.76779789 0.0274129568,6.56405877 0.00436718303,6.36031965 C-0.0186785907,6.15658053 0.0504587306,5.9528414 0.188733373,5.81701532 C0.327008016,5.68118924 0.53441998,5.59063852 0.741831944,5.59063852 L2.5394023,5.59063852 L2.5394023,4.77568204 C2.5394023,4.11918932 2.93118045,3.55324732 3.53037057,3.3495082 C3.99128605,3.19104444 4.4752473,3.25895748 4.86702545,3.53060964 C5.23575783,3.8022618 5.46621557,4.20974004 5.48926134,4.66249364 L5.48926134,5.54536316 L7.12551128,5.54536316 L7.12551128,5.273711 C7.12551128,5.02469652 7.12551128,4.77568204 7.14855705,4.52666756 C7.17160283,3.93808788 7.65556408,3.41742124 8.25475419,3.28159516 C9.01526473,3.1231314 9.77577526,3.575885 9.98318723,4.30029076 Z M12.6367057,10.0723309 L10.4441027,10.0728992 L10.4441027,10.0728992 C10.3519196,10.0728992 10.3288738,10.1181745 10.3288738,10.1860876 L10.3288738,13.9892178 L10.3288738,13.9892178 C10.3288738,14.1929569 10.3058281,14.4193337 10.2366907,14.6004352 C10.0292788,15.2342902 9.63750062,15.7323192 9.0383105,16.0945221 C8.94612741,16.1624351 8.90003586,16.2077105 8.90003586,16.3208989 C8.90003586,16.8189278 8.90003586,17.3169568 8.92308163,17.8149857 C8.92308163,18.9468698 8.94612741,20.0787538 8.94612741,21.1880001 C8.94612741,21.3691015 8.94612741,21.3917392 9.1304936,21.3917392 L10.8819724,21.3917392 C11.0663386,21.3917392 11.0663386,21.3917392 11.1124301,21.1880001 L11.3889794,19.9429277 L11.3889794,19.9429277 C11.4811625,19.5128118 11.5963914,19.0600582 11.6885745,18.6299422 C11.7240012,18.4907446 11.7321984,18.4585366 11.8178116,18.4510842 C12.018286,17.2525335 13.0559933,16.3435365 14.3157927,16.3435365 C15.5745443,16.3435365 16.6115731,17.2510221 16.8147405,18.4484431 L19.0862679,18.4488408 L19.0862679,18.4488408 C19.1323594,18.4488408 19.2014967,18.4488408 19.2475883,18.4714785 C19.478046,19.4675364 19.685458,20.4409566 19.9389615,21.4143769 L22.0591727,21.4143769 L22.0591727,21.4143769 L22.0822185,21.0873882 L22.0822185,21.0873882 L22.12831,20.4635943 L22.12831,20.4635943 L22.2204931,18.9695074 L22.2204931,18.9695074 C22.2665846,18.154551 22.3126762,17.3169568 22.3587677,16.5020003 C22.4048593,15.7775945 22.4279051,15.0531888 22.4739966,14.328783 C22.4970424,13.762841 22.5200882,13.196899 22.5661797,12.630957 C22.6583628,11.8839136 22.3818135,11.2500585 21.8748065,10.7293919 C21.7134861,10.5709281 21.5521657,10.3898267 21.413891,10.2313629 C21.3447537,10.1408122 21.2525706,10.0955369 21.1373417,10.0955369 L20.399877,10.0955369 L20.399877,10.0955369 L20.399877,10.0728992 L19.0862679,10.0728992 L19.0862679,10.0728992 C19.0862679,10.9104933 18.1413911,11.5896237 16.9660567,11.5896237 C16.6142452,11.5896237 16.2830821,11.5287752 15.9917277,11.4210419 C15.9153676,12.3929559 15.0953709,13.1516237 14.1083807,13.1516237 C13.0713209,13.1516237 12.2186273,12.2913918 12.2186273,11.2500585 C12.2186273,10.803296 12.3755793,10.394035 12.6367057,10.0723309 Z M19.5241376,13.7175657 C20.399877,13.7175657 21.114296,14.4193337 21.114296,15.3022033 C21.114296,16.1850728 20.399877,16.8868409 19.5241376,16.8868409 C18.6483982,16.8868409 17.9339792,16.1850728 17.9339792,15.3022033 C17.9339792,14.4193337 18.6483982,13.7175657 19.5241376,13.7175657 Z M5.42012402,7.06208773 L1.796,7.062 L1.8772414,7.16992621 C2.11449584,7.46178427 2.4068891,7.66481596 2.76986004,7.76385581 C3.25382129,7.92231957 3.34600438,8.26188477 3.34600438,8.46562389 L3.34600438,13.7175657 C3.34600438,14.26087 3.55341634,14.6909859 3.96824027,15.0079134 C4.22174378,15.1890149 4.54438462,15.2795656 4.95920854,15.2795656 L7.60947253,15.2795656 C7.88602181,15.2795656 8.09343378,15.2342902 8.27779997,15.1663772 C8.73871544,14.9626381 9.0383105,14.6230729 9.1304936,14.1250439 C9.17658515,13.9213048 9.17658515,13.7175657 9.15353937,13.4911889 L9.15353937,13.2648121 C8.41607461,13.0384353 7.74774717,12.6083193 7.14855705,11.997102 C6.68764158,11.5443484 6.3189092,10.9784064 6.01931414,10.3445513 C5.69667331,9.64278325 5.51230711,8.94101517 5.44316979,8.21660941 C5.42780594,8.03550797 5.42268466,7.84434534 5.42097757,7.6632439 L5.42012402,7.06208773 Z M4.45220152,10.0276238 C4.77484235,10.0276238 5.02834587,10.299276 5.02834587,10.6162035 C5.02834587,10.933131 4.75179658,11.1821455 4.45220152,11.1821455 C4.12956069,11.1595078 3.89910295,10.9104933 3.89910295,10.5935658 C3.87605718,10.2540006 4.17565224,10.0276238 4.45220152,10.0276238 Z M8.25475419,10.0276238 C7.97820491,10.0276238 7.67860985,10.2540006 7.70165562,10.5935658 C7.70165562,10.9104933 7.93211336,11.1595078 8.25475419,11.1821455 C8.55434925,11.1821455 8.83089854,10.933131 8.83089854,10.6162035 C8.83089854,10.299276 8.57739503,10.0276238 8.25475419,10.0276238 Z M3.96824027,4.30029076 C3.82996563,4.27765308 3.62255367,4.3682038 3.55341634,4.50402988 C3.53037057,4.57194292 3.5073248,4.66249364 3.5073248,4.75304436 L3.5073248,4.75304436 L3.5073248,5.43217476 C3.5073248,5.47745012 3.53037057,5.52272548 3.53037057,5.56800084 L3.53037057,5.56800084 L4.2908811,5.56800084 C4.31392688,5.52272548 4.33697265,5.5000878 4.33697265,5.5000878 L4.33697265,5.5000878 L4.33697265,4.68513132 C4.33697265,4.4813922 4.17565224,4.34556612 3.96824027,4.30029076 Z M8.62348657,4.30029076 C8.48521193,4.27765308 8.27779997,4.3682038 8.20866265,4.50402988 C8.18561687,4.57194292 8.1625711,4.66249364 8.1625711,4.75304436 L8.1625711,4.75304436 L8.1625711,5.43217476 C8.1625711,5.47745012 8.18561687,5.52272548 8.18561687,5.56800084 L8.18561687,5.56800084 L8.94612741,5.56800084 C8.94612741,5.52272548 8.96917318,5.5000878 8.96917318,5.47745012 L8.96917318,5.47745012 L8.96917318,4.66249364 C8.96917318,4.4813922 8.83089854,4.32292844 8.62348657,4.30029076 Z" id="Combined-Shape"></path>
                    </g>
                </g>
            </g>
        </g>
    </g>
</svg>