<?xml version="1.0" encoding="UTF-8"?>
<svg width="26px" height="26px" viewBox="0 0 26 26" version="1.1" xmlns="http://www.w3.org/2000/svg" xmlns:xlink="http://www.w3.org/1999/xlink">
    <title>4CA85326-0247-4F44-B3B0-2BF5D199B974</title>
    <g id="⇢-Styleguide" stroke="none" stroke-width="1" fill="none" fill-rule="evenodd">
        <g id="[Android]-⇢-Assets-⇢-Part-1-25" transform="translate(-328.000000, -653.000000)" fill="#F3BA2F" fill-rule="nonzero">
            <g id="categories" transform="translate(0.000000, 177.000000)">
                <g id="category" transform="translate(0.000000, 467.000000)">
                    <g id="🧿Icon/05.Networks/Coin/Binance/Color" transform="translate(328.000000, 9.000000)">
                        <path d="M18.0514858,15.0720248 L20.991037,18.008456 L20.989607,18.010016 L12.999831,25.999922 L5.00836494,18.008586 L7.95064612,15.0744948 L12.999831,20.1235496 L18.0514858,15.0720248 Z M12.999831,10.0171199 L15.981112,12.998401 L15.979812,12.998401 L15.982542,12.999831 L15.981112,13.001521 L12.999831,15.9828021 L10.0212799,13.004121 L10.0171199,12.999831 L12.999831,10.0171199 Z M23.0621908,10.0631008 L26.000078,13.000988 L23.0620088,15.9390702 L20.1241086,13.00117 L23.0621908,10.0631008 Z M2.93816015,10.0614758 L5.87604734,12.999376 L2.93799116,15.9374322 L7.79688125e-05,12.999558 L2.93816015,10.0614758 Z M12.999831,-1.22124533e-15 L20.989607,7.99003603 L18.0516158,10.9280272 L12.999831,5.87637237 L7.95064612,10.9254272 L5.01278493,7.98743604 L12.999831,-1.22124533e-15 Z" id="Binance-Icon"></path>
                    </g>
                </g>
            </g>
        </g>
    </g>
</svg>