<?xml version="1.0" encoding="UTF-8"?>
<svg width="26px" height="26px" viewBox="0 0 26 26" version="1.1" xmlns="http://www.w3.org/2000/svg" xmlns:xlink="http://www.w3.org/1999/xlink">
    <title>771D3D13-27F6-4F30-867F-9CAC56113499</title>
    <defs>
        <linearGradient x1="0%" y1="0%" x2="0%" y2="100%" id="linearGradient-1">
            <stop stop-color="#F9AA4B" offset="0%"></stop>
            <stop stop-color="#F7931A" offset="100%"></stop>
        </linearGradient>
    </defs>
    <g id="⇢-Styleguide" stroke="none" stroke-width="1" fill="none" fill-rule="evenodd">
        <g id="[Android]-⇢-Assets-⇢-Part-1-25" transform="translate(-328.000000, -503.000000)" fill="url(#linearGradient-1)" fill-rule="nonzero">
            <g id="categories" transform="translate(0.000000, 177.000000)">
                <g id="category" transform="translate(0.000000, 317.000000)">
                    <g id="🧿Icon/05.Networks/Coin/Bitcoin/Color" transform="translate(328.000000, 9.000000)">
                        <path d="M25.6083344,16.1133099 C23.8720219,23.064078 16.8183031,27.2942222 9.85314687,25.5608889 C2.89083437,23.827961 -1.34757188,16.7875867 0.389553125,9.83722417 C2.12505312,2.88564522 9.17877187,-1.34490448 16.1418969,0.388023392 C23.1066469,2.12095127 27.3446469,9.16213645 25.6083344,16.1133099 Z M18.7284906,11.1261754 C18.9872719,9.39973489 17.6702094,8.47164133 15.8693031,7.85250682 L16.4534906,5.51382456 L15.0271469,5.15904873 L14.4583969,7.43610136 C14.0834281,7.342846 13.6983031,7.2548616 13.3156156,7.16768811 L13.8884281,4.87563353 L12.4628969,4.5208577 L11.8783031,6.85872904 C11.5679281,6.78817934 11.2632406,6.71844055 10.9674906,6.64505263 L10.9691156,6.63775439 L9.00205312,6.14755556 L8.62261562,7.66802339 C8.62261562,7.66802339 9.68089687,7.91008187 9.65855312,7.92508382 C10.2362406,8.06902144 10.3406469,8.4505575 10.3231781,8.75302924 L9.65774062,11.4172943 C9.69755312,11.4274308 9.74914687,11.4420273 9.80602187,11.4647329 C9.75849062,11.4529747 9.70770937,11.44 9.65530312,11.4274308 L8.72255312,15.1596725 C8.65186562,15.3348304 8.47270937,15.5975673 8.06889687,15.4978246 C8.08311562,15.5185029 7.03214687,15.2395478 7.03214687,15.2395478 L6.32405312,16.8690838 L8.18020937,17.3309006 C8.52552187,17.4172632 8.86392812,17.5076803 9.19705312,17.5928265 L8.60677187,19.958269 L10.0314906,20.3130448 L10.6160844,17.9727407 C11.0052719,18.0781598 11.3830844,18.1754698 11.7527719,18.2671033 L11.1702094,20.59646 L12.5965531,20.9512359 L13.1868344,18.5902534 C15.6190531,19.0496374 17.4479906,18.8643431 18.2178344,16.6687875 C18.8381781,14.9009903 18.1869594,13.8812632 16.9072719,13.2163119 C17.8392094,13.0018246 18.5412094,12.3899883 18.7284906,11.1261754 L18.7284906,11.1261754 Z M15.4695531,15.6871735 C15.0287719,17.4549708 12.0464906,16.499306 11.0796156,16.2596803 L11.8628656,13.1258947 C12.8297406,13.3667368 15.9302406,13.8435556 15.4695531,15.6871735 Z M15.9107406,11.1006316 C15.5085531,12.7086784 13.0263656,11.8916803 12.2211781,11.691384 L12.9313031,8.84912281 C13.7364906,9.0494191 16.3295844,9.42325146 15.9107406,11.1006316 L15.9107406,11.1006316 Z" id="Bitcoin-Icon"></path>
                    </g>
                </g>
            </g>
        </g>
    </g>
</svg>