<svg width="26" height="26" viewBox="0 0 26 26" xmlns="http://www.w3.org/2000/svg">
    <path d="m11.296 4.063-6.362 6.319c-1.714 1.677-1.688 4.41 0 6.114a4.363 4.363 0 0 0 6.128 0l2.13-2.116 2.596 2.554-2.13 2.115a8.055 8.055 0 0 1-3.894 2.115c-1.428.31-2.103.31-3.532 0a8.052 8.052 0 0 1-3.895-2.115c-3.116-3.096-3.116-8.15 0-11.247l3.791-3.74h5.168zm1.065 2.424c3.116-3.095 8.205-3.095 11.32 0 3.092 3.07 3.092 8.125 0 11.22l-3.478 3.457h-5.168l6.05-6.01a4.323 4.323 0 0 0 0-6.113l-.166-.157a4.362 4.362 0 0 0-5.961.157l-2.13 2.115-2.597-2.554zm3.687 5.056c.7-.697 1.87-.697 2.57 0a1.844 1.844 0 0 1 0 2.579l-1.401 1.393-2.597-2.554zm-7.245-1.522 2.597 2.553-1.428 1.393a1.796 1.796 0 0 1-2.571 0c-.727-.696-.701-1.857 0-2.554l1.402-1.392z" fill="#242732" fill-rule="evenodd"/>
</svg>
