<?xml version="1.0" encoding="UTF-8"?>
<svg width="26px" height="26px" viewBox="0 0 26 26" version="1.1" xmlns="http://www.w3.org/2000/svg" xmlns:xlink="http://www.w3.org/1999/xlink">
    <title>D9A56530-075A-4332-8E4B-2F0C5DC28C21</title>
    <g id="⇢-Styleguide" stroke="none" stroke-width="1" fill="none" fill-rule="evenodd">
        <g id="[Android]-⇢-Assets-⇢-Part-1-25" transform="translate(-328.000000, -1853.000000)">
            <g id="categories" transform="translate(0.000000, 177.000000)">
                <g id="category" transform="translate(0.000000, 1667.000000)">
                    <g id="compound-comp-logo" transform="translate(328.000000, 9.000000)">
                        <path d="M13,26 C20.1799,26 26,20.1799 26,13 C26,5.8201 20.1799,0 13,0 C5.8201,0 0,5.8201 0,13 C0,20.1799 5.8201,26 13,26 Z" id="Path" fill="#070A0E" fill-rule="nonzero"></path>
                        <path d="M7.5101,17.3589 C7.1214,17.121 6.8835,16.6985 6.8835,16.2435 L6.8835,13.7033 C6.8835,13.4017 7.1292,13.1573 7.4308,13.1585948 C7.527,13.1585948 7.6219,13.1846 7.7051,13.2327 L13.4368,16.575 C13.7722,16.77 13.9789043,17.1288 13.9789043,17.5175 L13.9789043,20.1487 C13.9802,20.5101 13.6877,20.8039 13.3263,20.8039 C13.2054,20.8039 13.0858,20.7701 12.9831,20.7077 L7.5101,17.3589 Z M16.0537,12.5372 C16.3891,12.7322 16.5945,13.0923 16.5958,13.4797 L16.5958,18.8201 C16.5958,18.9774 16.5113,19.123 16.3735,19.1997 L15.119,19.9056 C15.1034,19.9147 15.0865,19.9212 15.0683,19.9264 L15.0683,16.9611 C15.0683,16.5776 14.8668,16.2214 14.5366,16.0238 L9.503,13.013 L9.503,9.6655 C9.503,9.3639 9.7487,9.1195 10.0503,9.12079484 C10.1465,9.12079484 10.2414,9.1468 10.3246,9.1949 L16.0537,12.5372 Z M18.5627,8.593 C18.8994,8.788 19.1061,9.1481 19.1061,9.5368 L19.1061,17.3368 C19.1048,17.4967 19.0164,17.6436 18.876,17.7203 L17.6865,18.3625 L17.6865,12.9324 C17.6865,12.5489 17.485,12.194 17.1574,11.9964 L12.012,8.9102 L12.012,5.7356 C12.012,5.6394 12.038,5.5445 12.0848,5.4613 C12.2369,5.2013 12.571,5.1129 12.831,5.2637 L18.5627,8.593 Z" id="Shape" fill="#00D395"></path>
                    </g>
                </g>
            </g>
        </g>
    </g>
</svg>