<?xml version="1.0" encoding="UTF-8"?>
<svg width="26px" height="26px" viewBox="0 0 26 26" version="1.1" xmlns="http://www.w3.org/2000/svg" xmlns:xlink="http://www.w3.org/1999/xlink">
    <title>20267418-43D3-4C13-ABFE-C330D884C76E</title>
    <g id="⇢-Styleguide" stroke="none" stroke-width="1" fill="none" fill-rule="evenodd">
        <g id="[Android]-⇢-Assets-⇢-Part-75-100" transform="translate(-328.000000, -581.000000)" fill-rule="nonzero">
            <g id="categories" transform="translate(0.000000, 177.000000)">
                <g id="category" transform="translate(0.000000, 395.000000)">
                    <g id="multi-collateral-dai-dai-logo" transform="translate(328.000000, 9.000000)">
                        <path d="M12.9836404,0 C20.1549663,0 25.9672809,5.81348315 25.9672809,12.9836404 C25.9672809,20.1549663 20.1549663,25.9672809 12.9836404,25.9672809 C5.81348315,25.9672809 0,20.154382 0,12.9836404 C0,5.81348315 5.81348315,0 12.9836404,0 Z" id="Path" fill="#F5AC37"></path>
                        <path d="M13.4621573,13.9003596 L18.3957303,13.9003596 C18.5008989,13.9003596 18.5505618,13.9003596 18.5581573,13.7624719 C18.5984719,13.2605843 18.5984719,12.7557753 18.5581573,12.2533034 C18.5581573,12.1557303 18.5096629,12.1154157 18.4039101,12.1154157 L8.58525843,12.1154157 C8.46373034,12.1154157 8.43101124,12.1557303 8.43101124,12.2696629 L8.43101124,13.7139775 C8.43101124,13.9003596 8.43101124,13.9003596 8.62557303,13.9003596 L13.4621573,13.9003596 L13.4621573,13.9003596 Z M18.007191,10.4274607 C18.0212135,10.3906517 18.0212135,10.3503371 18.007191,10.3141124 C17.924809,10.1347416 17.827236,9.96355056 17.7138876,9.8028764 C17.5432809,9.52826966 17.3422921,9.2752809 17.1132584,9.048 C17.0051685,8.91069663 16.8801348,8.78741573 16.7399101,8.68283146 C16.037618,8.0851236 15.2026966,7.66211236 14.3052584,7.4494382 C13.8524494,7.34777528 13.3897079,7.2992809 12.9257978,7.30337079 L8.56831461,7.30337079 C8.44678652,7.30337079 8.43042697,7.35186517 8.43042697,7.45761798 L8.43042697,10.3380674 C8.43042697,10.4595955 8.43042697,10.4923146 8.58467416,10.4923146 L17.948764,10.4923146 C17.948764,10.4923146 18.0299775,10.4759551 18.0463371,10.4274607 L18.0066067,10.4274607 L18.007191,10.4274607 Z M18.007191,15.5883146 C17.8693034,15.5731236 17.7302472,15.5731236 17.5923596,15.5883146 L8.5934382,15.5883146 C8.47191011,15.5883146 8.43101124,15.5883146 8.43101124,15.7507416 L8.43101124,18.5669213 C8.43101124,18.6966292 8.43101124,18.7293483 8.5934382,18.7293483 L12.7481798,18.7293483 C12.9468315,18.7445393 13.1454831,18.7305169 13.3400449,18.6890337 C13.9430112,18.6457978 14.5360449,18.5149213 15.101618,18.2993258 C15.3072809,18.2280449 15.5059326,18.1351461 15.6934831,18.0235506 L15.7501573,18.0235506 C16.7241348,17.5169888 17.515236,16.7212135 18.0142022,15.7443146 C18.0142022,15.7443146 18.0708764,15.621618 18.007191,15.5894831 L18.007191,15.5883146 Z M6.80031461,20.1894382 L6.80031461,20.1409438 L6.80031461,18.2502472 L6.80031461,17.6093034 L6.80031461,15.7022472 C6.80031461,15.5964944 6.80031461,15.5807191 6.67060674,15.5807191 L4.90961798,15.5807191 C4.81204494,15.5807191 4.77173034,15.5807191 4.77173034,15.4510112 L4.77173034,13.9091236 L6.65424719,13.9091236 C6.75941573,13.9091236 6.80031461,13.9091236 6.80031461,13.771236 L6.80031461,12.2457079 C6.80031461,12.1481348 6.80031461,12.1241798 6.67060674,12.1241798 L4.90961798,12.1241798 C4.81204494,12.1241798 4.77173034,12.1241798 4.77173034,11.9944719 L4.77173034,10.5665169 C4.77173034,10.4771236 4.77173034,10.4531685 4.9014382,10.4531685 L6.64606742,10.4531685 C6.76759551,10.4531685 6.80031461,10.4531685 6.80031461,10.2989213 L6.80031461,5.92507865 C6.80031461,5.79537079 6.80031461,5.76265169 6.96274157,5.76265169 L13.0484944,5.76265169 C13.4902022,5.78017978 13.9289888,5.82867416 14.3631011,5.9087191 C15.257618,6.07406742 16.1170787,6.39366292 16.9029213,6.84997753 C17.4240899,7.1567191 17.9037753,7.52714607 18.3308764,7.95366292 C18.6522247,8.2872809 18.9420225,8.64835955 19.1991011,9.03280899 C19.454427,9.42251685 19.6665169,9.83910112 19.8330337,10.274382 C19.8534831,10.3877303 19.9621573,10.4642697 20.0755056,10.4449888 L21.528,10.4449888 C21.714382,10.4449888 21.714382,10.4449888 21.7225618,10.6237753 L21.7225618,11.9547416 C21.7225618,12.0844494 21.6740674,12.1171685 21.5437753,12.1171685 L20.4237303,12.1171685 C20.310382,12.1171685 20.2776629,12.1171685 20.2858427,12.263236 C20.3302472,12.7575281 20.3302472,13.253573 20.2858427,13.7478652 C20.2858427,13.8857528 20.2858427,13.9021124 20.4406742,13.9021124 L21.7219775,13.9021124 C21.7786517,13.9751461 21.7219775,14.0481798 21.7219775,14.1217978 C21.7301573,14.2158652 21.7301573,14.3111011 21.7219775,14.4051685 L21.7219775,15.3873258 C21.7219775,15.5252135 21.6816629,15.5661124 21.5595506,15.5661124 L20.0258427,15.5661124 C19.9189213,15.5456629 19.8149213,15.6140225 19.790382,15.7203596 C19.4252135,16.6697978 18.8409438,17.5210787 18.0860674,18.2035056 C17.8102921,18.4518202 17.5204944,18.6855281 17.2178427,18.9011236 C16.8929888,19.0880899 16.5768989,19.2826517 16.2438652,19.4368989 C15.6309663,19.7126742 14.9882697,19.916 14.3286292,20.0451236 C13.7022921,20.1573034 13.067191,20.2081348 12.4297528,20.1993708 L6.79797753,20.1993708 L6.79797753,20.191191 L6.80031461,20.1894382 Z" id="Shape" fill="#FEFEFD"></path>
                    </g>
                </g>
            </g>
        </g>
    </g>
</svg>