<?xml version="1.0" encoding="UTF-8"?>
<svg width="26px" height="26px" viewBox="0 0 26 26" version="1.1" xmlns="http://www.w3.org/2000/svg" xmlns:xlink="http://www.w3.org/1999/xlink">
    <title>550CC244-9035-4537-9FCF-CF52B24E88DF</title>
    <g id="⇢-Styleguide" stroke="none" stroke-width="1" fill="none" fill-rule="evenodd">
        <g id="[Android]-⇢-Assets-⇢-Part-1-25" transform="translate(-328.000000, -1703.000000)" fill-rule="nonzero">
            <g id="categories" transform="translate(0.000000, 177.000000)">
                <g id="category" transform="translate(0.000000, 1515.000000)">
                    <g id="dent-dent-logo" transform="translate(328.000000, 11.000000)">
                        <circle id="Oval" fill="#E02E28" cx="13" cy="13" r="13"></circle>
                        <path d="M20.379125,17.184375 C20.0313482,17.7646958 19.2839238,17.9612915 18.695625,17.6271875 L14.8126875,15.4253125 L14.8126875,14.0278125 L16.0460625,13.3290625 L19.9281875,15.530125 C20.5180625,15.8640625 20.7195625,16.6050625 20.379125,17.1835625 L20.379125,17.184375 Z M14.2325625,20.1573125 C14.2325625,20.826 13.680875,21.3679375 13,21.3679375 C12.319125,21.3679375 11.7674375,20.826 11.7674375,20.1573125 L11.7674375,15.754375 L13,15.055625 L14.2325625,15.754375 L14.2325625,20.1573125 Z M7.304375,17.6271875 C6.71586645,17.9611497 5.96838022,17.764177 5.620875,17.1835625 C5.45794216,16.9052993 5.41393216,16.5731459 5.4987758,16.2620525 C5.58361945,15.9509591 5.79016749,15.6871397 6.0718125,15.530125 L9.9539375,13.32825 L11.1873125,14.0278125 L11.1873125,15.4253125 L7.304375,17.6271875 Z M6.0718125,10.469875 C5.79016749,10.3128603 5.58361945,10.0490409 5.4987758,9.73794751 C5.41393216,9.42685413 5.45794216,9.09470073 5.620875,8.8164375 C5.96838022,8.23582299 6.71586645,8.03885026 7.304375,8.3728125 L11.1873125,10.5746875 L11.1873125,11.9721875 L9.9539375,12.6709375 L6.0718125,10.469875 Z M11.7674375,5.8426875 C11.7674375,5.174 12.3199375,4.6320625 13,4.6320625 C13.680875,4.6320625 14.2325625,5.174 14.2325625,5.8426875 L14.2325625,10.2448125 L13,10.944375 L11.7674375,10.245625 L11.7674375,5.8426875 Z M14.8126875,12.6303125 L15.4659375,13 L14.8126875,13.3696875 L14.8126875,12.6303125 Z M13.580125,11.2734375 L14.2325625,10.9029375 L14.2325625,11.643125 L13.580125,11.2734375 Z M11.7674375,11.643125 L11.7674375,10.90375 L12.419875,11.2734375 L11.7674375,11.643125 Z M11.1873125,13.3696875 L10.5340625,13 L11.1873125,12.6303125 L11.1873125,13.3696875 Z M12.419875,14.7265625 L11.7674375,15.0970625 L11.7674375,14.356875 L12.419875,14.7265625 Z M14.2325625,14.356875 L14.2325625,15.09625 L13.580125,14.7265625 L14.2325625,14.356875 Z M13,14.3975 L11.7674375,13.69875 L11.7674375,12.30125 L13,11.6025 L14.2325625,12.30125 L14.2325625,13.69875 L13,14.3975 Z M18.695625,8.3728125 C19.2841336,8.03885026 20.0316198,8.23582299 20.379125,8.8164375 C20.720375,9.3949375 20.51725,10.1359375 19.9281875,10.469875 L16.0460625,12.67175 L14.8126875,11.9721875 L14.8126875,10.5746875 L18.695625,8.3728125 Z M20.21825,15.0369375 L16.6261875,13 L20.21825,10.9630625 C20.6327261,10.7323685 20.9367615,10.3443955 21.0616754,9.88678575 C21.1865892,9.42917597 21.1218429,8.94053662 20.8820625,8.53125 C20.3815625,7.67975 19.2725,7.3880625 18.4055625,7.879625 L14.8126875,9.9165625 L14.8126875,5.841875 C14.8126875,4.8595625 14.001,4.0625 13,4.0625 C11.999,4.0625 11.1873125,4.8595625 11.1873125,5.8426875 L11.1873125,9.9165625 L7.5944375,7.879625 C6.7275,7.3880625 5.6184375,7.67975 5.11875,8.53125 C4.87896957,8.94053662 4.81422329,9.42917597 4.93913715,9.88678575 C5.06405101,10.3443955 5.36808639,10.7323685 5.7825625,10.9630625 L9.3738125,13 L5.7825625,15.0369375 C5.36794825,15.2674925 5.06373891,15.6554042 4.93866877,16.1130264 C4.81359863,16.5706485 4.87822196,17.0593638 5.1179375,17.46875 C5.6184375,18.32025 6.7275,18.6119375 7.5944375,18.120375 L11.1873125,16.0834375 L11.1873125,20.1573125 C11.1873125,21.1404375 11.999,21.9375 13,21.9375 C14.001,21.9375 14.8126875,21.1404375 14.8126875,20.1573125 L14.8126875,16.0834375 L18.4055625,18.120375 C19.2725,18.6119375 20.3815625,18.32025 20.8820625,17.46875 C21.1218429,17.0594634 21.1865892,16.570824 21.0616754,16.1132142 C20.9367615,15.6556045 20.6327261,15.2676315 20.21825,15.0369375 L20.21825,15.0369375 Z" id="Shape" fill="#FFFFFF"></path>
                    </g>
                </g>
            </g>
        </g>
    </g>
</svg>