<svg width="26" height="27" viewBox="0 0 26 27" xmlns="http://www.w3.org/2000/svg">
    <g fill-rule="nonzero" fill="none">
        <path fill="#2A3D58" d="m12.867 13.766 6.434-3.768-6.434-3.792z"/>
        <path fill="#0F2631" d="M12.867 13.766 6.433 9.998l6.434-3.792zM19.3 2.438l-6.433 3.768 6.434 3.792z"/>
        <path fill="#2A3D58" d="m19.3 2.438 6.435 3.768L19.3 9.998z"/>
        <path fill="#0F2631" d="M6.433 2.438 0 6.205l6.433 3.792z"/>
        <path fill="#2A3D58" d="m6.433 2.438 6.434 3.768-6.434 3.792zM12.867 24.161l6.434-3.768-6.434-3.791z"/>
        <path fill="#0F2631" d="m12.867 24.161-6.434-3.768 6.434-3.791zM19.3 12.833l-6.433 3.769 6.434 3.79z"/>
        <path fill="#2A3D58" d="m19.3 12.833 6.435 3.769-6.434 3.79z"/>
        <path fill="#0F2631" d="M6.433 12.833 0 16.602l6.433 3.79z"/>
        <path fill="#2A3D58" d="m6.433 12.833 6.434 3.769-6.434 3.79z"/>
    </g>
</svg>
