<?xml version="1.0" encoding="UTF-8"?>
<svg width="26px" height="26px" viewBox="0 0 26 26" version="1.1" xmlns="http://www.w3.org/2000/svg" xmlns:xlink="http://www.w3.org/1999/xlink">
    <title>1FA4EE8A-E3D7-425F-BECA-AE0CDC9766BE</title>
    <g id="⇢-Styleguide" stroke="none" stroke-width="1" fill="none" fill-rule="evenodd">
        <g id="[Android]-⇢-Assets-⇢-Part-1-25" transform="translate(-328.000000, -1253.000000)" fill-rule="nonzero">
            <g id="categories" transform="translate(0.000000, 177.000000)">
                <g id="category" transform="translate(0.000000, 1067.000000)">
                    <g id="enjin-coin-enj-logo" transform="translate(328.000000, 9.000000)">
                        <circle id="Oval" fill="#7866D5" cx="12.9816901" cy="12.9816901" r="12.9816901"></circle>
                        <g id="Group" transform="translate(4.028169, 6.225352)" fill="#FFFFFF">
                            <path d="M14.2084507,0.43943662 C14.6478873,0.494366197 15.1056338,0.530985915 15.5450704,0.604225352 C16.4056338,0.769014085 16.6985915,1.2084507 16.5521127,2.08732394 C16.515493,2.41690141 16.2591549,2.67323944 15.9295775,2.72816901 C15.728169,2.76478873 15.5084507,2.78309859 15.3070423,2.76478873 C12.4507042,2.76478873 9.61267606,2.78309859 6.75633803,2.78309859 C6.33521127,2.78309859 5.89577465,2.81971831 5.47464789,2.89295775 C4.06478873,3.11267606 3.51549296,3.69859155 3.4056338,5.12676056 C3.35070423,5.78591549 3.35070423,5.78591549 4.02816901,5.78591549 L15.3802817,5.78591549 C15.4901408,5.78591549 15.6,5.78591549 15.7098592,5.78591549 C15.8929577,5.78591549 16.0577465,5.84084507 16.2225352,5.93239437 C16.7352113,6.26197183 16.6070423,6.79295775 16.5887324,7.26901408 C16.5704225,7.65352113 16.3323944,7.87323944 15.9295775,7.94647887 C15.7647887,7.98309859 15.6,7.98309859 15.4169014,7.98309859 C11.5352113,7.98309859 7.65352113,7.98309859 3.77183099,7.98309859 C3.35070423,7.98309859 3.35070423,7.98309859 3.38732394,8.40422535 C3.4056338,8.78873239 3.44225352,9.17323944 3.53380282,9.55774648 C3.71690141,10.2535211 4.13802817,10.6929577 4.85211268,10.8943662 C5.62112676,11.1140845 6.42676056,11.1507042 7.21408451,11.1690141 C9.97887324,11.1690141 12.7619718,11.1690141 15.5450704,11.1690141 C15.8929577,11.1690141 16.2225352,11.2056338 16.4422535,11.5352113 C16.7901408,12.084507 16.6070423,12.7985915 16.0577465,13.1464789 C15.984507,13.2014085 15.9112676,13.2380282 15.8197183,13.256338 C15.215493,13.4577465 14.5929577,13.4943662 13.9521127,13.5126761 C11.3338028,13.5676056 8.73380282,13.5676056 6.13380282,13.5126761 C5.32816901,13.4943662 4.52253521,13.4028169 3.73521127,13.2380282 C1.88591549,12.8535211 0.952112676,11.9014085 0.64084507,10.0338028 C0.567605634,9.61267606 0.530985915,9.17323944 0.476056338,8.73380282 L0.476056338,5.32816901 C0.512676056,4.99859155 0.549295775,4.65070423 0.585915493,4.32112676 C0.823943662,2.21549296 1.77605634,1.17183099 3.84507042,0.695774648 C4.57746479,0.530985915 5.34647887,0.494366197 6.07887324,0.421126761 L14.2084507,0.43943662 Z" id="Path"></path>
                            <path d="M10.0338028,13.8788732 C8.71549296,13.8788732 7.41549296,13.8605634 6.11549296,13.8422535 C5.2915493,13.8239437 4.46760563,13.7323944 3.66197183,13.5492958 C1.66619718,13.128169 0.64084507,12.0661972 0.311267606,10.0887324 C0.256338028,9.77746479 0.21971831,9.46619718 0.201408451,9.17323944 C0.183098592,9.04507042 0.164788732,8.91690141 0.146478873,8.77042254 L0.146478873,8.73380282 L0.146478873,5.2915493 L0.183098592,4.96197183 C0.201408451,4.72394366 0.238028169,4.50422535 0.256338028,4.28450704 C0.512676056,2.03239437 1.57464789,0.878873239 3.79014085,0.384507042 C4.37605634,0.256338028 4.94366197,0.201408451 5.51126761,0.146478873 C5.6943662,0.128169014 5.87746479,0.109859155 6.06056338,0.0915492958 L6.0971831,0.0915492958 L14.2450704,0.0915492958 L14.2633803,0.0915492958 C14.3915493,0.109859155 14.5380282,0.128169014 14.6661972,0.128169014 C14.9774648,0.164788732 15.2887324,0.183098592 15.6183099,0.256338028 C16.6619718,0.457746479 17.0647887,1.04366197 16.8816901,2.1056338 C16.8267606,2.56338028 16.4605634,2.94788732 15.9661972,3.02112676 C15.7464789,3.05774648 15.5267606,3.07605634 15.2887324,3.07605634 C12.4507042,3.0943662 9.5943662,3.11267606 6.75633803,3.11267606 C6.35352113,3.11267606 5.93239437,3.14929577 5.52957746,3.22253521 C4.26619718,3.42394366 3.84507042,3.88169014 3.73521127,5.16338028 C3.73521127,5.27323944 3.71690141,5.38309859 3.71690141,5.47464789 C3.79014085,5.47464789 3.91830986,5.47464789 4.02816901,5.47464789 L15.7098592,5.47464789 L15.7098592,5.47464789 C15.9478873,5.47464789 16.1859155,5.54788732 16.3873239,5.65774648 C17.0098592,6.06056338 16.9549296,6.66478873 16.9183099,7.10422535 C16.9183099,7.15915493 16.9,7.23239437 16.9,7.28732394 C16.8633803,7.8 16.5521127,8.14788732 15.984507,8.25774648 C15.7830986,8.2943662 15.6,8.2943662 15.4169014,8.2943662 L3.79014085,8.2943662 C3.77183099,8.2943662 3.73521127,8.2943662 3.71690141,8.2943662 C3.71690141,8.31267606 3.71690141,8.33098592 3.71690141,8.34929577 L3.71690141,8.36760563 C3.73521127,8.75211268 3.77183099,9.11830986 3.86338028,9.48450704 C4.00985915,10.0521127 4.35774648,10.4 4.94366197,10.5647887 C5.73098592,10.784507 6.53661972,10.8211268 7.23239437,10.8211268 C9.39295775,10.8394366 11.5901408,10.8394366 13.7323944,10.8394366 L15.5633803,10.8394366 C15.8380282,10.8394366 16.4056338,10.8394366 16.7352113,11.3704225 C16.9549296,11.7183099 17.0098592,12.1211268 16.9183099,12.5056338 C16.8267606,12.8901408 16.5887324,13.2197183 16.2408451,13.4394366 C16.1492958,13.4943662 16.0394366,13.5492958 15.9295775,13.5859155 C15.2521127,13.8056338 14.556338,13.8422535 13.9704225,13.8605634 C12.6704225,13.8605634 11.3521127,13.8788732 10.0338028,13.8788732 Z M0.805633803,8.71549296 C0.823943662,8.84366197 0.842253521,8.97183099 0.842253521,9.1 C0.878873239,9.39295775 0.915492958,9.68591549 0.952112676,9.97887324 C1.24507042,11.7 2.06901408,12.5422535 3.79014085,12.9084507 C4.55915493,13.0732394 5.34647887,13.1647887 6.13380282,13.1830986 C8.71549296,13.2380282 11.3521127,13.2380282 13.9521127,13.1830986 C14.4830986,13.1647887 15.1239437,13.128169 15.7098592,12.9450704 C15.7647887,12.9267606 15.8197183,12.8901408 15.8746479,12.871831 C16.0577465,12.743662 16.2042254,12.5605634 16.2591549,12.3408451 C16.3140845,12.1211268 16.2774648,11.9014085 16.1492958,11.7 C16.0394366,11.5352113 15.8929577,11.4802817 15.5450704,11.4802817 L13.7140845,11.4802817 C11.5901408,11.4802817 9.37464789,11.4802817 7.21408451,11.4619718 C6.48169014,11.4619718 5.62112676,11.4253521 4.76056338,11.1690141 C3.93661972,10.9492958 3.42394366,10.4183099 3.22253521,9.5943662 C3.13098592,9.1915493 3.07605634,8.77042254 3.07605634,8.36760563 L3.07605634,8.34929577 C3.05774648,8.09295775 3.03943662,7.90985915 3.18591549,7.74507042 C3.33239437,7.58028169 3.53380282,7.58028169 3.79014085,7.58028169 L15.4352113,7.58028169 C15.5816901,7.58028169 15.7464789,7.58028169 15.8929577,7.54366197 C16.1859155,7.48873239 16.2591549,7.36056338 16.2774648,7.17746479 C16.2774648,7.10422535 16.2957746,7.04929577 16.2957746,6.97605634 C16.3323944,6.51830986 16.3323944,6.29859155 16.0760563,6.13380282 C15.984507,6.07887324 15.856338,6.04225352 15.7464789,6.04225352 L15.7464789,6.04225352 L4.02816901,6.04225352 C3.62535211,6.04225352 3.38732394,6.04225352 3.20422535,5.85915493 C3.02112676,5.67605634 3.05774648,5.41971831 3.07605634,5.03521127 C3.20422535,3.46056338 3.86338028,2.74647887 5.41971831,2.5084507 C5.85915493,2.43521127 6.29859155,2.39859155 6.75633803,2.38028169 C9.61267606,2.38028169 12.4507042,2.36197183 15.3070423,2.36197183 C15.5084507,2.36197183 15.6915493,2.36197183 15.8746479,2.32535211 C16.0577465,2.30704225 16.2042254,2.16056338 16.2225352,1.97746479 C16.3507042,1.24507042 16.1676056,1.00704225 15.471831,0.86056338 C15.1788732,0.805633803 14.8859155,0.769014085 14.5929577,0.750704225 C14.4647887,0.732394366 14.3183099,0.714084507 14.1901408,0.714084507 L6.0971831,0.714084507 C5.91408451,0.732394366 5.73098592,0.750704225 5.54788732,0.769014085 C4.98028169,0.823943662 4.44929577,0.86056338 3.9,0.988732394 C1.97746479,1.46478873 1.13521127,2.39859155 0.915492958,4.37605634 C0.897183099,4.59577465 0.86056338,4.81549296 0.842253521,5.05352113 L0.805633803,5.36478873 L0.805633803,8.71549296 L0.805633803,8.71549296 Z" id="Shape"></path>
                        </g>
                    </g>
                </g>
            </g>
        </g>
    </g>
</svg>