<?xml version="1.0" encoding="UTF-8"?>
<svg width="26px" height="26px" viewBox="0 0 26 26" version="1.1" xmlns="http://www.w3.org/2000/svg" xmlns:xlink="http://www.w3.org/1999/xlink">
    <title>B25385AF-26D4-4CF3-A203-2ADF7DC1B4DA</title>
    <g id="⇢-Styleguide" stroke="none" stroke-width="1" fill="none" fill-rule="evenodd">
        <g id="[Android]-⇢-Assets-⇢-Part-51-75" transform="translate(-328.000000, -1031.000000)" fill="#13B5EC" fill-rule="nonzero">
            <g id="categories" transform="translate(0.000000, 177.000000)">
                <g id="category" transform="translate(0.000000, 845.000000)">
                    <g id="🧿Icon/05.Networks/Coin/Fantom/Color" transform="translate(328.000000, 9.000000)">
                        <path d="M13,0 C20.1797017,0 26,5.82029825 26,13 C26,20.1797017 20.1797017,26 13,26 C5.82029825,26 0,20.1797017 0,13 C0,5.82029825 5.82029825,0 13,0 Z M13,3.25 L7.3125,6.58165829 L7.3125,19.4183417 L13,22.75 L18.6875,19.4183417 L18.6875,6.58165829 L13,3.25 Z M17.55,14.0288945 L17.55,18.830402 L13,21.5741206 L8.45,18.830402 L8.45,14.0288945 L13,16.7726131 L17.55,14.0288945 Z M13.56875,10.991206 L16.98125,13.048995 L13.56875,15.1067839 L13.56875,10.991206 Z M12.43125,10.991206 L12.43125,15.1067839 L9.01875,13.048995 L12.43125,10.991206 Z M17.55,7.95351759 L17.55,12.0690955 L14.1375,10.0113065 L17.55,7.95351759 Z M8.45,7.95351759 L11.8625,10.0113065 L8.45,12.0690955 L8.45,7.95351759 Z M13,4.52386935 L16.98125,6.97361809 L13,9.32537688 L9.01875,6.97361809 L13,4.52386935 Z" id="🎨-Icon-Color"></path>
                    </g>
                </g>
            </g>
        </g>
    </g>
</svg>