<svg width="26" height="26" viewBox="0 0 26 26" xmlns="http://www.w3.org/2000/svg">
    <g fill="none" fill-rule="evenodd">
        <path d="M13 26C5.85 26 0 20.15 0 12.935.065 5.785 5.85-.065 13.065 0 20.215.065 26 5.85 26 13.13 25.935 20.215 20.15 26 13 26" fill="#0090FF"/>
        <path d="m14.235 11.44-.39 2.08 3.705.52-.26.975-3.64-.52c-.26.845-.39 1.755-.715 2.535-.325.91-.65 1.82-1.04 2.665-.52 1.105-1.43 1.885-2.665 2.08-.715.13-1.495.065-2.08-.39-.195-.13-.39-.39-.39-.585 0-.26.13-.585.325-.715.13-.065.455 0 .65.065.195.195.39.455.52.715.39.52.91.585 1.43.195.585-.52.91-1.235 1.105-1.95.39-1.56.78-3.055 1.105-4.615v-.26l-3.445-.52.13-.975 3.575.52.455-2.015-3.705-.585.13-1.04 3.835.52c.13-.39.195-.715.325-1.04.325-1.17.65-2.34 1.43-3.38.78-1.04 1.69-1.69 3.055-1.625.585 0 1.17.195 1.56.65.065.065.195.195.195.325 0 .26 0 .585-.195.78-.26.195-.585.13-.845-.13-.195-.195-.325-.39-.52-.585-.39-.52-.975-.585-1.43-.13-.325.325-.65.78-.845 1.235-.455 1.365-.78 2.795-1.235 4.225l3.575.52-.26.975-3.445-.52" fill="#FFF"/>
    </g>
</svg>
