<?xml version="1.0" encoding="UTF-8"?>
<svg width="26px" height="27px" viewBox="0 0 26 27" version="1.1" xmlns="http://www.w3.org/2000/svg" xmlns:xlink="http://www.w3.org/1999/xlink">
    <title>8808F51C-FC41-4453-A55E-B01ADD5ED5A2</title>
    <g id="⇢-Styleguide" stroke="none" stroke-width="1" fill="none" fill-rule="evenodd">
        <g id="[Android]-⇢-Assets-⇢-Part-51-75" transform="translate(-328.000000, -656.000000)" fill="#5DACEB" fill-rule="nonzero">
            <g id="categories" transform="translate(0.000000, 177.000000)">
                <g id="category" transform="translate(0.000000, 470.000000)">
                    <g id="simple" transform="translate(328.000000, 9.000000)">
                        <g id="free-color" transform="translate(4.062500, 0.000000)">
                            <path d="M8.72630225,0.116205788 C8.74546131,0.194904032 8.78529016,0.267057744 8.84167203,0.325209003 C8.99884244,0.457299035 9.06906752,0.649581994 9.17607717,0.813440514 C9.20951768,0.878649518 9.25299035,0.937170418 9.28810289,1.0007074 C9.35749196,1.11942122 9.4377492,1.23144695 9.50546624,1.35016077 C9.60244373,1.51234727 9.71028939,1.66868167 9.79389068,1.83003215 C9.80643087,1.85093248 9.81897106,1.8718328 9.83234727,1.89189711 C9.94855305,2.05909968 10.0438585,2.24135048 10.1558842,2.41106109 C10.2261093,2.52057878 10.2913183,2.63427653 10.3598714,2.74546624 C10.398328,2.81652733 10.4434727,2.88257235 10.4836013,2.95363344 C10.6014791,3.12919614 10.7043087,3.314791 10.8180064,3.49286174 C10.8389068,3.52797428 10.856463,3.56475884 10.8773633,3.59987138 C10.9718328,3.74199357 11.0596141,3.88913183 11.1482315,4.03543408 C11.2368489,4.18173633 11.3288103,4.3422508 11.4257878,4.49273312 C11.442508,4.51948553 11.4592283,4.54790997 11.4776206,4.57633441 C11.5863023,4.75607717 11.6924759,4.92327974 11.8003215,5.10135048 C11.8463023,5.17742765 11.8998071,5.24932476 11.9432797,5.32707395 C12.0059807,5.43157556 12.0653376,5.5377492 12.1347267,5.63807074 C12.2534405,5.82784566 12.3654662,6.02180064 12.482508,6.21241158 C12.5928617,6.37961415 12.6890032,6.55266881 12.7976849,6.71903537 C12.8603859,6.85363344 12.9581994,6.96983923 13.0259164,7.0977492 C13.0576849,7.15376206 13.0944695,7.20726688 13.127074,7.26495177 C13.2265595,7.4421865 13.3444373,7.60855305 13.4464309,7.78495177 C13.4932476,7.86019293 13.5300322,7.93961415 13.586045,8.01234727 C13.6387138,8.12186495 13.713955,8.21800643 13.777492,8.32250804 C13.8753055,8.48971061 13.975627,8.65691318 14.0809646,8.82411576 C14.0909968,8.83749196 14.1001929,8.85170418 14.1085531,8.86508039 C14.2222508,9.05485531 14.3351125,9.24463023 14.4496463,9.43356913 C14.5223794,9.54141479 14.5859164,9.65511254 14.6578135,9.7629582 C14.6906097,9.82772261 14.7280494,9.89002894 14.7698392,9.94938907 C14.8668167,10.1291318 14.9888746,10.2938264 15.0875241,10.4727331 C15.1104881,10.5151329 15.1358897,10.5561663 15.1636013,10.595627 C15.2380064,10.7394212 15.338328,10.8681672 15.4144051,11.0136334 C15.5155627,11.180836 15.6108682,11.3530547 15.7245659,11.5152412 C15.7342051,11.5286612 15.7426,11.5429326 15.7496463,11.5578778 C15.8449518,11.7250804 15.9469453,11.896463 16.053119,12.0594855 C16.1266881,12.1781994 16.1977492,12.2977492 16.2696463,12.416463 C16.3189711,12.5000643 16.3674598,12.5836656 16.4201286,12.6672669 C16.5288103,12.8269453 16.6174277,12.997492 16.7152412,13.1638585 C16.8055305,13.3477814 16.8966559,13.5317042 16.9911254,13.713955 C17.0630225,13.8903537 17.1441158,14.0642444 17.2068167,14.2448232 C17.2536334,14.3585209 17.290418,14.4747267 17.3288746,14.5909325 C17.3481029,14.6502894 17.3681672,14.7088103 17.3882315,14.7681672 C17.4417363,14.9637942 17.4985852,15.1585852 17.5462379,15.3533762 C17.5830225,15.5122186 17.612283,15.6727331 17.6465595,15.8324116 C17.6699678,16.0280386 17.6975563,16.2236656 17.7234727,16.4176206 C17.7176206,16.5848232 17.7544051,16.7520257 17.7619293,16.9192283 C17.7694534,17.0864309 17.7686174,17.2787138 17.7619293,17.4584566 C17.7778135,17.6390354 17.7251447,17.8154341 17.7251447,17.9943408 C17.7251447,18.1498392 17.6883601,18.3011576 17.6766559,18.4549839 C17.6315113,18.655627 17.613955,18.8621222 17.5679743,19.0627653 C17.5219936,19.2634084 17.4726688,19.4439871 17.4233441,19.6337621 C17.3915756,19.7265595 17.3598071,19.8201929 17.3297106,19.9138264 C17.2996141,20.0074598 17.2720257,20.0810289 17.2461093,20.1646302 C17.1817363,20.346881 17.1064952,20.5241158 17.0354341,20.7038585 C16.8745951,21.0677636 16.6911501,21.4212512 16.4861736,21.7622508 C16.4084244,21.8700965 16.3515756,21.9913183 16.2696463,22.0966559 C16.2131049,22.1654455 16.1622209,22.2386962 16.117492,22.3156913 C15.8412098,22.7020939 15.5309281,23.0630167 15.1903537,23.3941479 C14.8537026,23.7381103 14.4837678,24.0478362 14.0859807,24.3187781 C14.0216077,24.3689389 13.9538907,24.4149196 13.8878457,24.4625723 C13.7699678,24.5386495 13.65209,24.6147267 13.5317042,24.6874598 C13.1958174,24.8849388 12.8500969,25.0651934 12.4958842,25.2275241 C12.3169775,25.2969132 12.1447588,25.3821865 11.961672,25.4415434 C11.8780707,25.4657878 11.7944695,25.4958842 11.7108682,25.5251447 C11.6088746,25.5577492 11.5085531,25.5962058 11.4048875,25.6254662 C11.2243087,25.6664309 11.04791,25.7257878 10.8656592,25.7634084 C10.6834084,25.8010289 10.5086817,25.8361415 10.3297749,25.870418 C10.1558842,25.8879743 9.98282958,25.9113826 9.81061093,25.9389711 C9.63839228,25.9665595 9.45864952,25.9464952 9.28392283,25.9665595 C9.09163987,25.9581994 8.89935691,26 8.70623794,25.9665595 C8.53485531,25.9665595 8.36430868,25.936463 8.19209003,25.9473312 C8.01234727,25.9189068 7.82842444,25.9172347 7.64951768,25.8812862 C7.48231511,25.8645659 7.32096463,25.8319614 7.15794212,25.801865 C6.96565916,25.7483601 6.76836013,25.7182637 6.57691318,25.6639228 C6.40971061,25.6187781 6.24250804,25.5569132 6.08032154,25.5059164 C5.88971061,25.4306752 5.68823151,25.3880386 5.50514469,25.2935691 C5.32122186,25.221672 5.15151125,25.1196785 4.96758842,25.0477814 C4.92745981,25.0327331 4.88900322,25.0151768 4.85054662,24.9976206 C4.70257235,24.9198714 4.56379421,24.8262379 4.41163987,24.7568489 C4.04697593,24.537121 3.6947544,24.2973759 3.35659164,24.0387138 C3.30977492,24.0044373 3.27299035,23.9618006 3.22617363,23.9241801 C3.06900322,23.8405788 2.97536977,23.6817363 2.83659164,23.5830868 C2.74788722,23.5119121 2.66409497,23.4348233 2.58578778,23.3523473 C2.4742007,23.2387447 2.36871503,23.1193059 2.26977492,22.9945338 C2.22045016,22.9410289 2.16527331,22.8917042 2.12096463,22.8340193 C1.99555083,22.6944654 1.87777956,22.5482281 1.7681672,22.3959486 L1.70713826,22.3181994 C1.59009646,22.1392926 1.47472669,21.9595498 1.3518328,21.7848232 C1.30511165,21.679487 1.24915916,21.5784928 1.18463023,21.4830225 C1.14533762,21.3918971 1.08430868,21.3158199 1.03665595,21.2246945 C0.943022508,21.0533119 0.877813505,20.867717 0.78585209,20.6938264 C0.736527331,20.5751125 0.688038585,20.4563987 0.642893891,20.3351768 C0.622629864,20.2689114 0.597192591,20.2043399 0.56681672,20.1420579 C0.50244373,19.953119 0.437234727,19.7658521 0.387073955,19.5727331 C0.349453376,19.4055305 0.303472669,19.2458521 0.265016077,19.0819936 L0.224206264,18.9023127 L0.224206264,18.9023127 L0.161350482,18.5394212 L0.161350482,18.5394212 C0.168038585,18.4006431 0.113697749,18.267717 0.119549839,18.1281029 C0.115424787,18.0790934 0.107599692,18.0304661 0.0961414791,17.9826367 C0.0822729707,17.8437615 0.0778040569,17.7041079 0.0827652733,17.5646302 C0.0827652733,17.352283 0.072733119,17.1390997 0.0827652733,16.9267524 C0.0887020253,16.5701949 0.124497063,16.2147614 0.18977492,15.8641801 C0.218199357,15.6827653 0.254983923,15.5021865 0.298456592,15.3232797 C0.34192926,15.144373 0.396270096,14.9462379 0.448102894,14.758135 C0.501607717,14.5909325 0.556784566,14.4187138 0.626173633,14.2565273 C0.641221865,14.2155627 0.656270096,14.172926 0.669646302,14.1336334 C0.72733119,13.9915113 0.783344051,13.8485531 0.854405145,13.715627 C0.946366559,13.5551125 0.990675241,13.3711897 1.105209,13.2198714 C1.13432453,13.17029 1.16083428,13.1192239 1.18463023,13.066881 C1.25401929,12.9172347 1.365209,12.7918328 1.43543408,12.6413505 C1.51903537,12.4741479 1.63189711,12.3178135 1.71800643,12.1489389 L1.7681672,12.0461093 C1.86347267,11.8789068 1.97048232,11.7250804 2.05241158,11.5528617 C2.14186495,11.4165916 2.21961415,11.2719614 2.29819936,11.1290032 C2.32160772,11.0855305 2.34752412,11.0454019 2.37344051,11.0019293 C2.46790997,10.8347267 2.55987138,10.6733762 2.65434084,10.5095177 C2.71787781,10.4150482 2.76135048,10.3080386 2.82154341,10.2135691 C2.88173633,10.1190997 2.91517685,10.0221222 2.97453376,9.93266881 C3.07987138,9.75710611 3.17350482,9.57401929 3.28135048,9.40012862 C3.3022508,9.36501608 3.32064309,9.32823151 3.33819936,9.29144695 C3.42180064,9.15935691 3.49202572,9.01807074 3.574791,8.88430868 C3.77543408,8.5214791 3.99279743,8.16533762 4.18926045,7.80167203 C4.27286174,7.66958199 4.34392283,7.52662379 4.42836013,7.39286174 C4.45845659,7.34437299 4.48353698,7.29254019 4.51196141,7.24154341 C4.61646302,7.07434084 4.70257235,6.89376206 4.80540193,6.72405145 C4.8727953,6.62155324 4.93259085,6.51425656 4.98430868,6.40302251 C5.0378135,6.33028939 5.07710611,6.25003215 5.12559486,6.17395498 L5.40565916,5.68405145 L5.40565916,5.68405145 C5.4380793,5.63714702 5.46606692,5.58732907 5.48926045,5.53524116 C5.57787781,5.39562701 5.65646302,5.24848875 5.74006431,5.10636656 C5.93652733,4.74771704 6.14135048,4.39491961 6.34366559,4.04045016 C6.44900322,3.85819936 6.55350482,3.67594855 6.65717042,3.49202572 C6.76083601,3.30810289 6.85948553,3.14758842 6.95395498,2.97118971 C7.00160772,2.88758842 7.06096463,2.80398714 7.10025723,2.71536977 C7.16685955,2.61181536 7.22662251,2.50401862 7.27916399,2.39266881 C7.37446945,2.22546624 7.48064309,2.06996785 7.56424437,1.89858521 C7.6075546,1.83965086 7.64454284,1.77632251 7.67459807,1.7096463 C7.75067524,1.59093248 7.81421222,1.46553055 7.88527331,1.34347267 C7.96741158,1.21807074 8.02744775,1.07668006 8.11052653,0.949984928 L8.2029582,0.829324759 C8.29659164,0.640385852 8.36263666,0.436398714 8.52649518,0.290096463 C8.5634376,0.236859073 8.59640992,0.180973795 8.62514469,0.122893891 C8.64938907,0.0468167203 8.68700965,0.0978135048 8.72630225,0.116205788 Z M7.95466238,17.161672 L3.96353698,17.161672 L3.96353698,22.6074598 L5.13030654,22.6063774 L5.13061093,22.6091318 L5.67652733,22.6091318 L5.67630654,22.6053774 L7.29030654,22.6043774 L7.29421222,22.6091318 L7.95466238,22.6091318 L7.95030654,22.6033774 L7.9621865,22.6041158 L7.9621865,22.6041158 L7.9621865,17.2452733 C7.9621865,17.2193569 7.95466238,17.1892605 7.95466238,17.161672 L7.95466238,17.161672 Z M10.985209,19.046881 L8.58083601,19.046881 L8.58083601,22.6057878 L11.1114469,22.6057878 L11.1114469,22.1953055 L9.12508039,22.1953055 L9.12508039,20.9471383 L10.7009646,20.9471383 L10.7009646,20.5366559 L9.12508039,20.5366559 L9.12508039,19.4573633 L10.985209,19.4573633 L10.985209,19.046881 Z M14.4086817,19.046881 L12.0034727,19.046881 L12.0034727,22.6057878 L14.5382637,22.6057878 L14.5382637,22.1953055 L12.5527331,22.1953055 L12.5527331,20.9471383 L14.1277814,20.9471383 L14.1277814,20.5366559 L12.5527331,20.5366559 L12.5527331,19.4573633 L14.4086817,19.4573633 L14.4086817,19.046881 Z M14.4095177,17.2193569 L11.6264309,17.2193569 L11.6264309,18.6664952 L14.4095177,18.6664952 L14.4095177,17.2193569 Z M12.1589711,11.6648875 L3.97189711,11.6648875 L3.97189711,16.3958842 L14.4095177,16.3958842 L14.4053376,14.6762058 L7.78745981,14.6762058 L7.78745981,14.6762058 L7.70385852,14.6695177 L7.70385852,12.9490032 L12.1589711,12.9490032 L12.1589711,11.6648875 Z" id="Combined-Shape"></path>
                        </g>
                    </g>
                </g>
            </g>
        </g>
    </g>
</svg>