<?xml version="1.0" encoding="UTF-8"?>
<svg width="26px" height="26px" viewBox="0 0 26 26" version="1.1" xmlns="http://www.w3.org/2000/svg" xmlns:xlink="http://www.w3.org/1999/xlink">
    <title>79C8F998-CE99-437C-88AD-561E9271A41B</title>
    <g id="⇢-Styleguide" stroke="none" stroke-width="1" fill="none" fill-rule="evenodd">
        <g id="[Android]-⇢-Assets-⇢-Part-51-75" transform="translate(-328.000000, -731.000000)" fill="#5DACEB">
            <g id="categories" transform="translate(0.000000, 177.000000)">
                <g id="category" transform="translate(0.000000, 545.000000)">
                    <g id="fmn-color" transform="translate(328.000000, 9.000000)">
                        <path d="M12.9729315,1.49658064e-13 L13.2835833,0.00363112922 C20.3050381,0.168286138 25.9465805,5.91181259 25.9469315,12.9729315 C25.9472877,20.1378904 20.1389589,25.9465753 12.974,25.9469315 L12.974,25.9469315 C12.87016,25.9469367 12.7666049,25.9457218 12.6633482,25.9433004 L12.5637815,25.9404514 C12.5464172,25.9399031 12.5290617,25.9393203 12.5117151,25.9387031 C5.5605672,25.6954795 0.000348463442,19.9840391 -3.50830476e-14,12.974 C-0.000341469219,6.10466372 5.33856351,0.481991891 12.0933047,0.0293947447 C12.1214676,0.0278566816 12.1497911,0.0260339802 12.1781386,0.0243021757 C12.2364977,0.0204574455 12.2949078,0.017316079 12.3534194,0.0145623224 L12.5116515,0.00819266465 C12.6647219,0.00275841697 12.8184819,1.49658064e-13 12.9729315,1.49658064e-13 L12.5621251,0.00640122318 C12.6985404,0.00215104913 12.8354863,6.83228911e-06 12.9729315,1.49658064e-13 L12.9729315,1.49658064e-13 Z M12.9729315,0.521424658 L12.6658985,0.525151963 C5.93094294,0.688490032 0.521424658,6.19946637 0.521424658,12.974 C0.521456553,13.5898348 0.566195211,14.195227 0.652572201,14.7871081 L0.665041102,14.8705659 L0.665041102,14.8705659 L6.61610959,14.8709315 L6.61610959,20.2240822 L6.61967123,20.2240822 L6.61967123,20.615863 L11.7626849,20.615863 L11.7626849,14.8709315 L16.8985753,14.8709315 L16.8985753,13.6742192 L19.7229589,13.6742192 L19.7229589,14.8709315 L23.2619368,14.8706687 L23.2619368,14.8706687 L23.2674564,14.8326038 C23.3545991,14.2252837 23.3996772,13.6043776 23.3996438,12.9729315 C23.3993366,7.16224823 19.5788403,2.24417954 14.3127366,0.592849459 C13.8726142,0.545576368 13.4255935,0.521424658 12.9729315,0.521424658 L12.9729315,0.521424658 Z M11.3630685,13.6742192 L11.3630685,20.1987945 L7.04778082,20.1987945 L7.04778082,13.6742192 L11.3630685,13.6742192 Z M17.2850137,7.22693151 L17.2853699,8.78052055 L17.2853699,8.78052055 L11.5870959,8.78087671 L11.5870959,8.78087671 L11.5870959,10.865863 L11.5870959,10.865863 C11.6227123,10.8687123 11.6597534,10.874411 11.6967945,10.874411 L20.1264932,10.874411 L20.1264932,10.874411 C20.1393151,10.874411 20.1524932,10.8733425 20.1653151,10.8726301 L20.1656712,12.9611781 L20.1656712,12.9611781 L20.0939041,12.9630034 L20.0939041,12.9630034 L20.022137,12.9640274 L20.022137,12.9640274 L6.80915068,12.9647397 L6.80915068,12.9647397 L6.80915068,7.22728767 L6.80915068,7.22728767 C10.298137,7.22728767 13.7878356,7.22693151 17.2850137,7.22693151 Z" id="Combined-Shape"></path>
                    </g>
                </g>
            </g>
        </g>
    </g>
</svg>