<?xml version="1.0" encoding="UTF-8"?>
<svg width="26px" height="26px" viewBox="0 0 26 26" version="1.1" xmlns="http://www.w3.org/2000/svg" xmlns:xlink="http://www.w3.org/1999/xlink">
    <title>68C3B07E-729A-4EAF-9E80-3F899274A891</title>
    <g id="⇢-Styleguide" stroke="none" stroke-width="1" fill="none" fill-rule="evenodd">
        <g id="[Android]-⇢-Assets-⇢-Part-1-25" transform="translate(-328.000000, -1328.000000)" fill="#007F88" fill-rule="nonzero">
            <g id="categories" transform="translate(0.000000, 177.000000)">
                <g id="category" transform="translate(0.000000, 1142.000000)">
                    <g id="simple" transform="translate(328.000000, 9.000000)">
                        <g id="holo-hot-logo" transform="translate(0.000000, 3.656250)">
                            <path d="M0.700917587,0.020494546 C0.307714528,0.0513465507 0.00508071368,0.11305056 0.0220900595,0.159328567 C0.178929482,0.531756338 1.14868309,2.72445239 1.16193713,2.73767468 C1.17519116,2.75089696 1.40050977,2.76632297 1.66559048,2.77734154 C2.84078165,2.82141583 3.77077315,3.05060215 4.77587086,3.54643794 C5.4982158,3.901236 6.03279524,4.28247863 6.58946474,4.835611 C7.40900595,5.65098541 7.94358539,6.55671212 8.25726423,7.66518057 C8.29260833,7.79299602 8.3213254,7.90758918 8.3213254,7.9252189 C8.3213254,7.94945976 8.14239592,7.95386719 7.35157179,7.95386719 C6.81699235,7.95386719 6.35751912,7.96268205 6.32880204,7.97370062 C6.28683093,7.98912662 6.17638063,8.2271278 5.71690739,9.27829968 C5.40764656,9.98569207 5.15140187,10.580695 5.14698386,10.6005284 C5.13152082,10.657825 5.31707732,10.7085105 5.78096856,10.7768256 C5.87595582,10.7922516 6.44587935,10.8076776 7.11962617,10.8164925 L8.29260833,10.8297148 L8.22192014,11.0721234 C7.43109601,13.7474329 4.9768904,15.6183866 1.97043331,15.8431655 C1.80033985,15.8541841 1.57723025,15.8652027 1.47340697,15.8652027 L1.28564146,15.8652027 L0.706881903,17.1940426 C0.209855565,18.3289556 0.132540357,18.5228825 0.165675446,18.5339011 C0.31588785,18.588994 0.651656754,18.6088274 1.42922685,18.6088274 C2.42327952,18.6088274 2.90705183,18.5647531 3.72659303,18.3972708 C7.07323704,17.7119155 9.85437553,15.5875346 11.1135089,12.7491502 C11.3564996,12.202629 11.6414613,11.3035134 11.6922685,10.9266782 L11.7077315,10.8186962 L14.2193713,10.8186962 L14.2282073,10.8671779 C14.4093458,11.7530712 14.6059473,12.3502779 14.9461342,13.0554665 C15.968904,15.1798474 17.8863212,16.9141708 20.2610025,17.8661756 C21.7030164,18.4423034 23.2476598,18.7189983 24.8005098,18.6793463 C25.4499575,18.6595128 25.9668649,18.5867902 25.9403568,18.5184751 C25.9182668,18.4611785 24.8181818,15.9423327 24.8115548,15.9357216 C24.8049278,15.9291104 24.5774002,15.9202955 24.3012744,15.909277 C23.5259133,15.878425 22.9427358,15.7880727 22.284452,15.6007569 C21.2705183,15.3098666 20.2676296,14.7831788 19.4988955,14.1396941 C18.5313509,13.3265234 17.831096,12.3150184 17.459983,11.1933277 C17.4180119,11.0655122 17.3760408,10.9310856 17.3694138,10.8914188 L17.3539507,10.8208999 L18.2994053,10.8142888 C18.8185217,10.8098813 19.2603229,10.7988628 19.2779949,10.7900479 C19.306712,10.7746219 20.437723,8.21610923 20.437723,8.16542379 C20.437723,8.13236807 20.1527613,8.04862692 19.8943076,8.00675634 C19.7043331,7.97590433 19.4635514,7.96708948 18.5026338,7.96047833 L17.3384877,7.94945976 L17.3826678,7.79299602 C18.0276975,5.5143551 20.0069669,3.7051054 22.5583687,3.06382444 C23.1216653,2.9227867 23.6694987,2.85006412 24.3807986,2.82141583 C24.8049278,2.80378611 24.8579439,2.79717497 24.884452,2.76191554 C24.902124,2.73767468 25.1627867,2.1536903 25.4632116,1.46392762 C25.8321155,0.619904923 26.002209,0.20340286 25.986746,0.192384287 C25.9381478,0.165939711 25.628887,0.110846846 25.3858963,0.0866059847 C25.0324554,0.0491428361 24.0008496,0.05575398 23.5457944,0.0954208432 C20.9435854,0.326810879 18.5976211,1.37357532 16.8392523,3.08365787 C15.7656754,4.1282186 15.0124044,5.30059478 14.5485132,6.65367556 C14.4292268,6.99525133 14.2856415,7.53295769 14.2414613,7.79299602 L14.2149533,7.95386719 L11.7459473,7.95386719 L11.7371113,7.90318175 C11.7304843,7.87673718 11.7061852,7.75112544 11.6796771,7.62330999 C11.3151912,5.816264 10.2857944,4.05990345 8.83226848,2.76632297 C7.17772302,1.29203788 5.11451147,0.368681456 2.84365336,0.0881485849 C2.16107052,0.00506854363 1.28122345,-0.0235797465 0.700917587,0.020494546 Z" id="Path"></path>
                        </g>
                    </g>
                </g>
            </g>
        </g>
    </g>
</svg>