<?xml version="1.0" encoding="UTF-8"?>
<svg width="26px" height="26px" viewBox="0 0 26 26" version="1.1" xmlns="http://www.w3.org/2000/svg" xmlns:xlink="http://www.w3.org/1999/xlink">
    <title>214D406D-78D7-4670-9B6C-37383C4C79FE</title>
    <g id="⇢-Styleguide" stroke="none" stroke-width="1" fill="none" fill-rule="evenodd">
        <g id="[Android]-⇢-Assets-⇢-Part-1-25" transform="translate(-328.000000, -728.000000)" fill-rule="nonzero">
            <g id="categories" transform="translate(0.000000, 177.000000)">
                <g id="category" transform="translate(0.000000, 542.000000)">
                    <g id="simple" transform="translate(328.000000, 9.000000)">
                        <g id="huobi" transform="translate(4.875000, 0.000000)">
                            <path d="M11.0591482,7.99930956 C11.0591482,4.27248705 9.2626286,1.06168612 7.88657106,0.0105310526 C7.88657106,0.0105310526 7.79101151,-0.0468046783 7.79101151,0.106090604 C7.67634004,7.31128079 4.02596517,9.27980755 2.00010268,11.8981393 C-2.64409152,17.9757267 1.67520021,24.6266715 6.07093958,25.8498338 C8.53637601,26.5378626 5.49758227,24.6266715 5.11534406,20.6131704 C4.65665821,15.7396332 11.0591482,12.0319226 11.0591482,7.99930956" id="Path" fill="#282E5B"></path>
                            <path d="M13.4672489,10.464746 C13.448137,10.4456341 13.4099131,10.4456341 13.3716893,10.464746 C13.3716893,10.464746 13.3716893,10.464746 13.3525774,10.4838579 C13.2761298,11.3821177 12.2823104,13.3315325 11.0400363,15.1089402 C6.81630408,21.1483039 9.22440478,24.0533142 10.5813504,25.6204909 C11.3649387,26.5378626 10.5813504,25.6204909 12.5498772,24.6840073 C12.7027725,24.6075596 16.3722592,22.6581448 16.7736094,18.2432935 C17.1749595,13.9431137 14.4419563,11.2483343 13.4672489,10.464746" id="Path" fill="#059BDC"></path>
                        </g>
                    </g>
                </g>
            </g>
        </g>
    </g>
</svg>