<?xml version="1.0" encoding="UTF-8"?>
<svg width="26px" height="26px" viewBox="0 0 26 26" version="1.1" xmlns="http://www.w3.org/2000/svg" xmlns:xlink="http://www.w3.org/1999/xlink">
    <title>FAC5FD0A-08EB-4F34-BE1A-753DA096528F</title>
    <g id="⇢-Styleguide" stroke="none" stroke-width="1" fill="none" fill-rule="evenodd">
        <g id="[Android]-⇢-Assets-⇢-Part-1-25" transform="translate(-328.000000, -803.000000)">
            <g id="categories" transform="translate(0.000000, 177.000000)">
                <g id="category" transform="translate(0.000000, 617.000000)">
                    <g id="just" transform="translate(328.000000, 9.000000)">
                        <path d="M13,0 C20.1786,0 26,5.8214 26,13 C26,20.1786 20.1786,26 13,26 C5.8214,26 0,20.1786 0,13 C0,5.8214 5.8214,0 13,0 Z" id="SVGID" fill="#B41514"></path>
                        <path d="M12.896,21.45 C11.93392,21.45 11.154,20.67008 11.154,19.708 C11.154,18.74592 11.93392,17.966 12.896,17.966 C13.85808,17.966 14.638,18.74592 14.638,19.708 C14.638,20.67008 13.85808,21.45 12.896,21.45 Z" id="SVGID-2" fill="#FFFFFF" fill-rule="nonzero"></path>
                        <path d="M12.896,9.438 C11.93392,9.438 11.154,8.65808003 11.154,7.696 C11.154,6.73391997 11.93392,5.954 12.896,5.954 C13.85808,5.954 14.638,6.73391997 14.638,7.696 C14.638,8.65808003 13.85808,9.438 12.896,9.438 Z" id="SVGID-3" fill="#FFFFFF" fill-rule="nonzero"></path>
                        <polygon id="SVGID-4" fill="#FFFFFF" fill-rule="nonzero" points="5.772 16.796 5.772 14.378 20.02 14.378 20.02 16.796"></polygon>
                        <path d="M12.896,13.182 C8.8322,13.182 5.525,9.958 5.3872,5.928 L7.9638,5.928 C8.099,8.5358 10.257,10.608 12.896,10.608 C15.535,10.608 17.693,8.5358 17.8282,5.928 L20.4048,5.928 C20.267,9.958 16.9598,13.182 12.896,13.182 Z" id="SVGID-5" fill="#FFFFFF" fill-rule="nonzero"></path>
                    </g>
                </g>
            </g>
        </g>
    </g>
</svg>