<?xml version="1.0" encoding="UTF-8"?>
<svg width="26px" height="26px" viewBox="0 0 26 26" version="1.1" xmlns="http://www.w3.org/2000/svg" xmlns:xlink="http://www.w3.org/1999/xlink">
    <title>0D47ED1D-5E82-4782-86FA-E5612F9431E6</title>
    <defs>
        <linearGradient x1="11.7634295%" y1="0%" x2="91.065401%" y2="101.88879%" id="linearGradient-1">
            <stop stop-color="#4883FF" offset="0%"></stop>
            <stop stop-color="#062EF5" offset="100%"></stop>
        </linearGradient>
    </defs>
    <g id="⇢-Styleguide" stroke="none" stroke-width="1" fill="none" fill-rule="evenodd">
        <g id="[Android]-⇢-Assets-⇢-Part-51-75" transform="translate(-328.000000, -581.000000)" fill="url(#linearGradient-1)" fill-rule="nonzero">
            <g id="categories" transform="translate(0.000000, 177.000000)">
                <g id="category" transform="translate(0.000000, 395.000000)">
                    <g id="simple" transform="translate(328.000000, 9.000000)">
                        <g id="kswap-color" transform="translate(0.812500, 0.000000)">
                            <path d="M22.8302528,9.17277834e-06 C23.4589437,9.17277834e-06 23.96875,0.515368443 23.96875,1.1512856 L23.96875,1.15143904 L23.96875,1.67927717 C23.96875,2.08082475 23.8217663,2.46815279 23.5561425,2.76657056 L3.35464492,25.4621491 C3.04998456,25.8044229 2.61604454,25.9998557 2.1607184,25.9998557 L1.6411392,25.9998557 C0.959128729,25.9998557 0.40625,25.440622 0.40625,24.7507724 L0.40625,18.0653157 C0.40625,17.6637403 0.553254157,17.2763873 0.81891112,16.9779622 L15.4532703,0.53848908 C15.757879,0.196307659 16.1917056,0.000904009187 16.6469292,0.000842647764 L22.8302528,9.17277834e-06 Z M17.2352002,15.9064358 C17.276922,15.9444259 17.3166465,15.9846018 17.3542102,16.0267982 L23.5552764,22.9926264 C23.8209393,23.2910529 23.9679472,23.6784102 23.9679472,24.0799907 L23.9679472,24.7280241 C23.9679472,25.4304382 23.4049987,25.9998574 22.7105665,25.9998574 L16.8593815,25.9998574 C16.4040871,25.9998574 15.9701743,25.8044517 15.665516,25.4622194 L12.0846006,21.4396633 C11.5344283,20.8216371 11.534369,19.8831905 12.0844635,19.2650933 L14.9663443,16.0269546 C15.5599695,15.3599455 16.5757708,15.3059875 17.2352002,15.9064358 Z M6.296875,0.000939043516 C7.18413927,0.000939043516 7.90340909,0.728476325 7.90340909,1.62593904 L7.90340909,4.72989284 C7.90340909,5.13147107 7.75640293,5.51882644 7.49074272,5.81725229 L2.27318455,11.6783264 C1.87737934,12.1229489 1.20017396,12.1588351 0.760603999,11.7584804 C0.535040728,11.5530402 0.40625,11.2604393 0.40625,10.9534202 L0.40625,1.62593904 C0.40625,0.728476325 1.12551981,0.000939043516 2.01278409,0.000939043516 L6.296875,0.000939043516 Z" id="形状结合"></path>
                        </g>
                    </g>
                </g>
            </g>
        </g>
    </g>
</svg>