<svg width="26" height="26" viewBox="0 0 26 26" xmlns="http://www.w3.org/2000/svg">
    <g fill-rule="nonzero" fill="none">
        <circle fill="#88BDF3" cx="13" cy="5.887" r="5.887"/>
        <circle fill="#3075EE" cx="13" cy="20.113" r="5.887"/>
        <circle fill="#5795F1" cx="20.113" cy="13" r="5.887"/>
        <circle fill="#205FEC" cx="5.887" cy="13" r="5.887"/>
        <path d="M11.608 11.608a5.896 5.896 0 0 1-4.33-4.33 5.896 5.896 0 0 1 4.33 4.33z" fill="#134BEF"/>
        <path d="M7.279 18.721a5.896 5.896 0 0 1 4.33-4.33 5.896 5.896 0 0 1-4.33 4.33z" fill="#0932E8"/>
        <path d="M14.392 14.392a5.896 5.896 0 0 1 4.33 4.33 5.896 5.896 0 0 1-4.33-4.33z" fill="#164BEA"/>
        <path d="M18.721 7.279a5.896 5.896 0 0 1-4.33 4.33 5.896 5.896 0 0 1 4.33-4.33z" fill="#3170F1"/>
    </g>
</svg>
