<?xml version="1.0" encoding="UTF-8"?>
<svg width="26px" height="26px" viewBox="0 0 26 26" version="1.1" xmlns="http://www.w3.org/2000/svg" xmlns:xlink="http://www.w3.org/1999/xlink">
    <title>0C0EAEE5-EEF6-426E-B64E-DCA43D5DDF8B</title>
    <g id="⇢-Styleguide" stroke="none" stroke-width="1" fill="none" fill-rule="evenodd">
        <g id="[Android]-⇢-Assets-⇢-Part-1-25" transform="translate(-328.000000, -953.000000)">
            <g id="categories" transform="translate(0.000000, 177.000000)">
                <g id="category" transform="translate(0.000000, 767.000000)">
                    <g id="pancakeswap-cake-logo" transform="translate(328.000000, 9.000000)">
                        <path d="M4.63125,4.0625 C4.225,1.95 5.85,0 7.9625,0 C9.83125,0 11.375,1.54375 11.375,3.4125 L11.375,7.6375 C11.8625,7.6375 12.35,7.55625 12.8375,7.55625 C13.325,7.55625 13.73125,7.55625 14.21875,7.6375 L14.21875,3.4125 C14.21875,1.54375 15.7625,0 17.63125,0 C19.74375,0 21.36875,1.95 21.04375,4.0625 L20.15,9.01875 C23.31875,10.4 25.75625,12.8375 25.75625,15.84375 L25.75625,17.7125 C25.75625,20.23125 24.13125,22.34375 21.775,23.725 C19.41875,25.1875 16.33125,26 12.8375,26 C9.34375,26 6.25625,25.1875 3.9,23.725 C1.625,22.34375 0,20.23125 0,17.7125 L0,15.84375 C0,12.8375 2.35625,10.4 5.525,9.01875 L4.63125,4.0625 Z M18.93125,9.66875 L19.9875,3.81875 C20.23125,2.35625 19.175,0.975 17.63125,0.975 C16.33125,0.975 15.275,2.03125 15.275,3.33125 L15.275,8.69375 C14.95,8.6125 14.54375,8.6125 14.21875,8.6125 C13.73125,8.6125 13.325,8.53125 12.8375,8.53125 C12.35,8.53125 11.8625,8.53125 11.375,8.6125 C11.05,8.6125 10.64375,8.69375 10.31875,8.69375 L10.31875,3.4125 C10.31875,2.1125 9.2625,1.05625 7.9625,1.05625 C6.5,1.05625 5.3625,2.4375 5.6875,3.9 L6.74375,9.75 C3.33125,11.05 1.05625,13.325 1.05625,15.925 L1.05625,17.79375 C1.05625,21.775 6.3375,25.025 12.8375,25.025 C19.3375,25.025 24.61875,21.775 24.61875,17.79375 L24.61875,15.925 C24.7,13.24375 22.425,10.96875 18.93125,9.66875 Z" id="Shape" fill="#633001"></path>
                        <path d="M24.7,17.7125 C24.7,21.69375 19.41875,24.94375 12.91875,24.94375 C6.41875,24.94375 1.1375,21.69375 1.1375,17.7125 L1.1375,15.84375 L24.78125,15.84375 L24.78125,17.7125 L24.7,17.7125 Z" id="Path" fill="#FEDC90" fill-rule="nonzero"></path>
                        <path d="M5.6875,3.9 C5.3625,2.4375 6.5,1.05625 7.9625,1.05625 C9.2625,1.05625 10.31875,2.1125 10.31875,3.4125 L10.31875,8.775 C11.13125,8.69375 11.94375,8.6125 12.8375,8.6125 C13.65,8.6125 14.4625,8.69375 15.275,8.775 L15.275,3.4125 C15.275,2.1125 16.33125,1.05625 17.63125,1.05625 C19.09375,1.05625 20.23125,2.4375 19.9875,3.9 L18.93125,9.75 C22.34375,11.05 24.7,13.325 24.7,15.925 C24.7,19.90625 19.41875,23.15625 12.91875,23.15625 C6.41875,23.15625 1.1375,19.90625 1.1375,15.925 C1.1375,13.325 3.4125,11.05 6.825,9.75 L5.6875,3.9 Z" id="Path" fill="#D1884F"></path>
                        <path d="M9.5875,15.35625 C9.5875,16.4125 9.01875,17.30625 8.2875,17.30625 C7.55625,17.30625 6.9875,16.4125 6.9875,15.35625 C6.9875,14.3 7.55625,13.40625 8.2875,13.40625 C9.01875,13.40625 9.5875,14.3 9.5875,15.35625 Z" id="Path" fill="#633001" fill-rule="nonzero"></path>
                        <path d="M18.60625,15.35625 C18.60625,16.4125 18.0375,17.30625 17.30625,17.30625 C16.575,17.30625 16.00625,16.4125 16.00625,15.35625 C16.00625,14.3 16.575,13.40625 17.30625,13.40625 C18.0375,13.40625 18.60625,14.3 18.60625,15.35625 Z" id="Path" fill="#633001" fill-rule="nonzero"></path>
                    </g>
                </g>
            </g>
        </g>
    </g>
</svg>