<svg width="26" height="27" viewBox="0 0 26 27" xmlns="http://www.w3.org/2000/svg">
    <g fill-rule="nonzero" fill="none">
        <path d="M13.1 0a9.89 9.89 0 0 0-9.85 9.85c0 1.087.176 2.167.52 3.199a1.409 1.409 0 0 0 1.732.863 1.402 1.402 0 0 0 .837-1.726 6.499 6.499 0 0 1-.383-2.511 7.105 7.105 0 1 1 7.533 7.306s-1.383.084-2.07.168a7.15 7.15 0 0 0-.753.15.09.09 0 0 1-.13 0 .09.09 0 0 1 0-.11l.214-1.168 1.298-5.84a1.35 1.35 0 0 0-2.64-.565S6.32 23.91 6.32 24.04a1.298 1.298 0 0 0 .96 1.583h.072a1.297 1.297 0 0 0 1.59-.967.333.333 0 0 1 0-.065c.038-.168.427-2.07.427-2.07a3.504 3.504 0 0 1 2.9-2.758c.299-.045 1.551-.13 1.551-.13A9.843 9.843 0 0 0 13.1 0z" fill="#1E1E1E"/>
        <path d="M13.697 22.71a1.641 1.641 0 0 0-1.942 1.273l-.005.025a1.635 1.635 0 0 0 1.253 1.946h.046a1.608 1.608 0 0 0 1.941-1.186l.005-.02v-.09a1.702 1.702 0 0 0-1.298-1.948z" fill="#E6007A"/>
    </g>
</svg>
