<?xml version="1.0" encoding="UTF-8"?>
<svg width="26px" height="27px" viewBox="0 0 26 27" version="1.1" xmlns="http://www.w3.org/2000/svg" xmlns:xlink="http://www.w3.org/1999/xlink">
    <title>9E6F1FA0-4DD9-4405-8711-13176522344B</title>
    <g id="⇢-Styleguide" stroke="none" stroke-width="1" fill="none" fill-rule="evenodd">
        <g id="[Android]-⇢-Assets-⇢-Part-51-75" transform="translate(-328.000000, -881.000000)" fill="#FF8A3B" fill-rule="nonzero">
            <g id="categories" transform="translate(0.000000, 177.000000)">
                <g id="category" transform="translate(0.000000, 695.000000)">
                    <g id="🧿Icon/05.Networks/Coin/PostQuantum/Color" transform="translate(328.000000, 9.000000)">
                        <path d="M14.8164461,0 C16.2756941,0.00156100499 17.6745376,0.567045841 18.7052466,1.57205412 C19.7359555,2.57706239 20.3140996,3.93926893 20.3124967,5.3590034 C20.3078666,8.13277475 18.1285092,10.444717 15.2885735,10.6885617 L15.2885735,10.6885617 L15.2885735,15.5764439 C16.117245,15.1187936 17.0534644,14.8773831 18.0063326,14.8756512 L18.0063326,14.8756512 L18.4845129,14.8756512 L18.4845129,15.7825595 L18.0063326,15.7825595 C16.9502455,15.7829544 15.9272525,16.1410931 15.113039,16.79547 L15.113039,16.79547 L14.3322129,17.4255946 L14.3322129,9.76987542 L14.8164461,9.76987542 C16.4942547,9.8541991 18.0830681,9.03129712 18.9479961,7.63000131 C19.8129242,6.22870549 19.8129242,4.47752327 18.9479961,3.07622746 C18.0830681,1.67493164 16.4942547,0.852029666 14.8164461,0.936353341 L14.8164461,0.936353341 L11.8505176,0.936353341 L11.8505176,6.47791619 L12.5163383,6.47791619 L12.5163383,1.5605889 L14.7135466,1.5605889 C16.7662488,1.54467798 18.4930309,3.05363596 18.6963649,5.0409966 C18.8446245,6.77776315 17.7591024,8.38987636 16.0633467,8.95130238 C15.5376964,9.06829891 14.9976081,9.11192232 14.4593241,9.0808607 L14.4593241,9.0808607 L11.3662843,9.0808607 C9.77028026,9.0571021 8.44478689,10.273609 8.37614411,11.8251416 C8.36151586,12.577729 8.65859856,13.3044187 9.2005197,13.8416346 C9.74244084,14.3788506 10.4836604,14.6814483 11.2573319,14.6813137 L11.2573319,14.6813137 L13.4545402,14.6813137 L13.4545402,20.2287656 C13.4578746,22.6667303 15.4884095,24.6422825 17.9942267,24.6455266 L17.9942267,24.6455266 L18.472407,24.6455266 L18.472407,25.5701019 L17.9942267,25.5701019 C16.9536664,25.5698572 15.9349458,25.2796691 15.0585627,24.7338618 L15.0585627,24.7338618 L15.0585627,26 L14.0658846,26 L14.0658846,23.997735 C13.8277265,23.7670146 13.6128723,23.5145932 13.4242756,23.2439411 L13.4242756,23.2439411 L13.4242756,26 L12.4679149,26 L12.4679149,15.605889 L11.2573319,15.605889 C10.2263251,15.6076853 9.2380816,15.2051474 8.51591499,14.4892369 C7.79374839,13.7733265 7.39860787,12.8044647 7.41978347,11.8015855 C7.50156369,9.74446536 9.25043682,8.12384854 11.3662843,8.14450736 L11.3662843,8.14450736 L14.4714299,8.14450736 C14.8990186,8.16867103 15.3280362,8.1409762 15.7485951,8.06206116 C17.0257575,7.638322 17.8454056,6.42638635 17.7400043,5.11755379 C17.569569,3.61899113 16.263189,2.48779591 14.7135466,2.49694224 L14.7135466,2.49694224 L13.4545402,2.49694224 L13.4545402,6.43669309 L14.8164461,6.43669309 C15.4144097,6.39429124 15.8772884,5.90992888 15.8772884,5.32661382 C15.8772884,4.74329876 15.4144097,4.2589364 14.8164461,4.21653454 L14.8164461,4.21653454 L14.1445725,4.21653454 L14.1445725,3.2801812 L14.8164461,3.2801812 C15.9864726,3.2801812 16.9349665,4.2029918 16.9349665,5.34133635 C16.9349665,6.47968091 15.9864726,7.40249151 14.8164461,7.40249151 L14.8164461,7.40249151 L11.2573319,7.40249151 C9.4977542,7.39709692 7.89388875,8.38275647 7.14297615,9.93097915 C6.39206355,11.4792018 6.62974477,13.3103247 7.75269382,14.6283126 C8.45660878,15.4321016 9.43825685,15.9578074 10.5128233,16.1064553 L10.5128233,16.1064553 L11.4268135,16.2477916 C11.6599307,16.2826473 11.8321101,16.4776673 11.8323588,16.7071348 L11.8323588,16.7071348 L11.8323588,25.988222 L10.8759982,25.988222 L10.8759982,17.0958097 L10.3675533,17.0192525 C7.58606512,16.6340666 5.56187575,14.2540209 5.69357435,11.5235791 C5.82527294,8.79313731 8.06965773,6.60798045 10.8759982,6.47791619 L10.8759982,6.47791619 L10.8759982,0 Z M18.472407,16.4362401 L18.472407,17.3667044 L17.9942267,17.3667044 C16.3695613,17.3667044 15.0525098,18.6480928 15.0525098,20.2287656 C15.0525098,21.8094383 16.3695613,23.0908267 17.9942267,23.0908267 L17.9942267,23.0908267 L18.472407,23.0908267 L18.472407,24.0212911 L17.9942267,24.0212911 C15.84276,24.0180483 14.0994822,22.3219749 14.0961492,20.2287656 C14.0994822,18.1355563 15.84276,16.4394829 17.9942267,16.4362401 L17.9942267,16.4362401 L18.472407,16.4362401 Z M18.472407,18.1852775 L18.472407,19.1157418 L17.9942267,19.1157418 C17.3624124,19.1157418 16.8502257,19.6140595 16.8502257,20.2287656 C16.8502257,20.8434716 17.3624124,21.3417894 17.9942267,21.3417894 L17.9942267,21.3417894 L18.472407,21.3417894 L18.472407,22.2722537 L17.9942267,22.2722537 C16.8356089,22.2690191 15.8971897,21.3560104 15.8938651,20.2287656 C15.8938651,19.1001783 16.834229,18.1852775 17.9942267,18.1852775 L17.9942267,18.1852775 L18.472407,18.1852775 Z M11.2573319,9.77576444 C12.1098471,9.77576444 12.8783024,10.2757222 13.2039775,11.0422451 C13.5296527,11.8087681 13.3483246,12.6907019 12.7446385,13.2763536 C12.1409525,13.8620053 11.233955,14.0358847 10.4470389,13.7168237 C9.66012285,13.3977627 9.14846753,12.64868 9.15090853,11.8192525 C9.15425344,10.6897133 10.0963509,9.77576444 11.2573319,9.77576444 Z M11.2573319,10.7062131 C10.7940837,10.7038441 10.3750853,10.9735064 10.196107,11.3892204 C10.0171286,11.8049344 10.1135047,12.2846285 10.4402052,12.6041733 C10.7669057,12.9237181 11.2594322,13.020028 11.6876596,12.8481038 C12.1158871,12.6761797 12.39528,12.2699632 12.39528,11.8192525 C12.39528,11.206839 11.8867811,10.709469 11.2573319,10.7062131 Z" id="Combined-Shape"></path>
                    </g>
                </g>
            </g>
        </g>
    </g>
</svg>