<?xml version="1.0" encoding="UTF-8"?>
<svg width="26px" height="26px" viewBox="0 0 26 26" version="1.1" xmlns="http://www.w3.org/2000/svg" xmlns:xlink="http://www.w3.org/1999/xlink">
    <title>96CD16D4-97F6-423C-8D4F-F155F2E2CE4C</title>
    <g id="⇢-Styleguide" stroke="none" stroke-width="1" fill="none" fill-rule="evenodd">
        <g id="[Android]-⇢-Assets-⇢-Part-51-75" transform="translate(-328.000000, -1631.000000)">
            <g id="categories" transform="translate(0.000000, 177.000000)">
                <g id="category" transform="translate(0.000000, 1445.000000)">
                    <g id="simple" transform="translate(328.000000, 9.000000)">
                        <g id="SCT" transform="translate(0.000000, 0.406250)">
                            <path d="M12.6128377,23.2352287 C7.57268366,23.2352287 3.48683774,19.1606489 3.48683774,14.1343923 C3.48683774,9.10813573 7.57268366,5.03355593 12.6128377,5.03355593 C17.6529918,5.03355593 21.7388377,9.10813573 21.7388377,14.1343923 C21.7388377,19.1606489 17.6529918,23.2352287 12.6128377,23.2352287 M12.6128377,3.34406733 C6.63702998,3.34406733 1.79267774,8.17506198 1.79267774,14.1343923 C1.79267774,20.0937227 6.63702998,24.9247173 12.6128377,24.9247173 C18.5886455,24.9247173 23.4329977,20.0937227 23.4329977,14.1343923 C23.4329977,8.17506198 18.5886455,3.34406733 12.6128377,3.34406733" id="Fill-9" fill="#CACACF"></path>
                            <path d="M12.1027664,0.237487026 C12.2868027,-0.0789327208 12.7448811,-0.0792127466 12.9293012,0.236973645 L12.9293012,0.236973645 L13.6636213,1.49597869 L9.23986066,9.10206571 L9.9209785,10.3763788 L14.3695993,2.72756921 L15.563589,4.74331579 L11.1063289,12.4069854 L16.7649824,22.1245785 L16.7305189,22.1526838 L14.1859655,22.1028112 L6.6249013,9.65595661 Z M16.2718499,5.99205416 L19.5383588,11.6962997 L18.1548198,14.0751184 L15.9503526,10.5502477 L15.1734445,11.8860452 L19.5478686,19.7961935 L21.259485,19.7835736 L18.8691469,15.5031469 L20.3165492,13.0145395 L25.1711975,21.4342133 C25.3546628,21.7524159 25.1237142,22.1493057 24.7556509,22.1483367 L18.3001151,22.1312814 L12.6480323,12.2227294 L16.2718499,5.99205416 Z M6.15362342,10.6172075 L9.1975703,16.1277593 L6.45058814,16.1171836 L6.01574126,15.5566094 L5.13543326,17.0267912 L9.88697174,17.0267912 L12.7612312,21.9661932 L0.478646064,21.9661932 C0.108673344,21.9661932 -0.121002336,21.5649816 0.067105584,21.2472738 L0.067105584,21.2472738 L0.818741664,19.9777398 L8.56121198,19.9777398 L8.2324139,19.0681228 L1.3066223,19.0681228 L6.15362342,10.6172075 Z" id="Combined-Shape" fill="#242732"></path>
                        </g>
                    </g>
                </g>
            </g>
        </g>
    </g>
</svg>