<?xml version="1.0" encoding="UTF-8"?>
<svg width="26px" height="26px" viewBox="0 0 26 26" version="1.1" xmlns="http://www.w3.org/2000/svg" xmlns:xlink="http://www.w3.org/1999/xlink">
    <title>0C0EC50E-5BD9-41A1-8F80-145ACD4D88D3</title>
    <defs>
        <linearGradient x1="35.5353448%" y1="7.21957029%" x2="51.4344828%" y2="54.111189%" id="linearGradient-1">
            <stop stop-color="#03B8FF" offset="0%"></stop>
            <stop stop-color="#FA52A0" offset="100%"></stop>
        </linearGradient>
        <linearGradient x1="36.5085128%" y1="12.6457771%" x2="55.5162467%" y2="64.9819341%" id="linearGradient-2">
            <stop stop-color="#03B8FF" offset="0%"></stop>
            <stop stop-color="#FA52A0" offset="100%"></stop>
        </linearGradient>
        <linearGradient x1="28.7245071%" y1="-8.28203468%" x2="47.7931559%" y2="44.7359945%" id="linearGradient-3">
            <stop stop-color="#03B8FF" offset="0%"></stop>
            <stop stop-color="#FA52A0" offset="100%"></stop>
        </linearGradient>
    </defs>
    <g id="⇢-Styleguide" stroke="none" stroke-width="1" fill="none" fill-rule="evenodd">
        <g id="[Android]-⇢-Assets-⇢-Part-1-25" transform="translate(-328.000000, -1778.000000)">
            <g id="categories" transform="translate(0.000000, 177.000000)">
                <g id="category" transform="translate(0.000000, 1592.000000)">
                    <g id="simple" transform="translate(328.000000, 9.000000)">
                        <g id="sushiswap-sushi-logo" transform="translate(0.000000, 0.406250)">
                            <polygon id="Path" fill="url(#linearGradient-1)" fill-rule="nonzero" points="5.41666667 1.4236413 25.5666667 15.3315217 20.5833333 22.7782609 0.433333333 8.76086957"></polygon>
                            <path d="M25.5666667,15.3315217 C23.8333333,17.8502717 17.9833333,16.8646739 12.4583333,12.9222826 C6.825,9.08940217 3.79166667,3.9423913 5.41666667,1.4236413 C7.15,-1.0951087 13,-0.10951087 18.525,3.83288043 C24.1583333,7.55625 27.1916667,12.8127717 25.5666667,15.3315217 Z" id="Path" fill="url(#linearGradient-2)" fill-rule="nonzero"></path>
                            <path d="M20.5833333,22.66875 C18.85,25.1875 13,24.2019022 7.475,20.2595109 C1.95,16.3171196 -1.19166667,11.2796196 0.541666667,8.6513587 C2.275,6.1326087 8.125,7.11820652 13.65,11.0605978 C19.175,15.0029891 22.2083333,20.15 20.5833333,22.66875 Z" id="Path" fill="url(#linearGradient-3)" fill-rule="nonzero"></path>
                            <path d="M25.5666667,15.3315217 C25.5666667,15.3315217 25.5666667,15.3315217 25.5666667,15.3315217 L20.5833333,22.7782609 L20.5833333,22.7782609 C18.85,25.2970109 13,24.2019022 7.475,20.3690217 C6.39166667,19.6024457 5.41666667,18.8358696 4.44166667,17.9597826 C5.2,17.8502717 6.175,17.4122283 7.15,16.3171196 C8.88333333,14.4554348 9.75,14.0173913 10.5083333,14.1269022 C11.2666667,14.1269022 12.1333333,14.8934783 13.5416667,16.755163 C14.95,18.6168478 16.9,19.1644022 18.0916667,18.1788043 C18.2,18.0692935 18.3083333,18.0692935 18.4166667,17.9597826 C19.3916667,17.1932065 19.7166667,16.8646739 21.5583333,13.3603261 C21.9916667,12.4842391 23.5083333,11.0605978 25.5666667,11.717663 C26.1083333,13.1413043 26.1083333,14.3459239 25.5666667,15.3315217 Z" id="Path" fill="#0E0F23" fill-rule="nonzero"></path>
                            <path d="M24.8083333,14.8934783 C23.2916667,17.0836957 17.9833333,15.988587 12.8916667,12.3747283 C7.69166667,8.76086957 4.65833333,4.16141304 6.175,1.97119565 C7.69166667,-0.219021739 13,0.876086957 18.0916667,4.48994565 C23.1833333,8.10380435 26.2166667,12.7032609 24.8083333,14.8934783 Z M20.0416667,11.6081522 C19.2833333,12.7032609 16.6833333,12.1557065 14.0833333,10.4035326 C11.5916667,8.6513587 10.075,6.35163043 10.8333333,5.25652174 C11.5916667,4.16141304 14.1916667,4.70896739 16.7916667,6.4611413 C19.2833333,8.21331522 20.8,10.5130435 20.0416667,11.6081522 Z" id="Shape" fill="#FFFFFF"></path>
                            <path d="M4.98333333,3.9423913 C4.98333333,3.83288043 4.875,3.72336957 4.76666667,3.83288043 C4.65833333,3.9423913 4.55,3.9423913 4.55,4.05190217 C4.65833333,4.38043478 4.76666667,4.59945652 4.76666667,4.81847826 C4.76666667,4.92798913 4.875,5.0375 4.98333333,4.92798913 C5.09166667,4.92798913 5.2,4.81847826 5.09166667,4.70896739 C5.09166667,4.48994565 5.09166667,4.27092391 4.98333333,3.9423913 Z" id="Path" fill="#FFFFFF" fill-rule="nonzero"></path>
                            <path d="M5.525,5.69456522 C5.525,5.58505435 5.41666667,5.47554348 5.30833333,5.58505435 C5.2,5.69456522 5.2,5.69456522 5.2,5.80407609 C6.39166667,8.54184783 8.88333333,11.4986413 12.1333333,13.6888587 C12.2416667,13.7983696 12.35,13.6888587 12.4583333,13.6888587 C12.5666667,13.5793478 12.4583333,13.469837 12.4583333,13.3603261 C9.1,11.1701087 6.71666667,8.32282609 5.525,5.69456522 Z" id="Path" fill="#FFFFFF" fill-rule="nonzero"></path>
                            <path d="M18.6333333,16.4266304 C18.525,16.4266304 18.4166667,16.4266304 18.4166667,16.5361413 C18.4166667,16.6456522 18.4166667,16.755163 18.525,16.755163 C18.85,16.8646739 19.2833333,16.9741848 19.6083333,17.0836957 C19.7166667,17.0836957 19.825,17.0836957 19.825,16.9741848 C19.825,16.8646739 19.825,16.755163 19.7166667,16.755163 C19.3916667,16.6456522 18.9583333,16.5361413 18.6333333,16.4266304 Z" id="Path" fill="#FFFFFF" fill-rule="nonzero"></path>
                            <path d="M20.5833333,16.8646739 C20.475,16.8646739 20.3666667,16.9741848 20.3666667,17.0836957 C20.3666667,17.1932065 20.475,17.3027174 20.5833333,17.3027174 C21.45,17.4122283 22.425,17.5217391 23.1833333,17.4122283 C23.2916667,17.4122283 23.4,17.3027174 23.4,17.1932065 C23.4,17.0836957 23.2916667,16.9741848 23.1833333,16.9741848 C22.3166667,17.0836957 21.45,16.9741848 20.5833333,16.8646739 Z" id="Path" fill="#FFFFFF" fill-rule="nonzero"></path>
                        </g>
                    </g>
                </g>
            </g>
        </g>
    </g>
</svg>