<?xml version="1.0" encoding="UTF-8"?>
<svg width="26px" height="26px" viewBox="0 0 26 26" version="1.1" xmlns="http://www.w3.org/2000/svg" xmlns:xlink="http://www.w3.org/1999/xlink">
    <title>D252B588-ED60-4761-8C32-FA9BA6441EE4</title>
    <defs>
        <linearGradient x1="50.0068771%" y1="-0.000289415656%" x2="50.0068771%" y2="26.4605706%" id="linearGradient-1">
            <stop stop-color="#090220" offset="0%"></stop>
            <stop stop-color="#170659" offset="100%"></stop>
        </linearGradient>
    </defs>
    <g id="⇢-Styleguide" stroke="none" stroke-width="1" fill="none" fill-rule="evenodd">
        <g id="[Android]-⇢-Assets-⇢-Part-1-25" transform="translate(-328.000000, -1478.000000)" fill-rule="nonzero">
            <g id="categories" transform="translate(0.000000, 177.000000)">
                <g id="category" transform="translate(0.000000, 1292.000000)">
                    <g id="synthetix-network-token-snx-logo" transform="translate(328.000000, 9.000000)">
                        <circle id="Oval" fill="url(#linearGradient-1)" cx="12.9985949" cy="12.9985949" r="12.9985949"></circle>
                        <g id="Group" transform="translate(4.693539, 7.022394)" fill="#00D1FF">
                            <path d="M4.02354523,2.74446629 C3.91964246,2.61548354 3.76199687,2.54382646 3.59360273,2.54382646 L0.121817042,2.54382646 C0.0931542083,2.54382646 0.0680742292,2.5330779 0.0465771042,2.51516362 C0.0286628333,2.49724935 0.0179142708,2.47575223 0.0179142708,2.45067225 L0.0179142708,0.111068479 C0.0179142708,0.0859885 0.0286628333,0.064491375 0.0465771042,0.0465771042 C0.0680742292,0.0250799792 0.0931542083,0.0143314167 0.121817042,0.0179142708 L3.79065971,0.0179142708 C4.71503608,0.0179142708 5.51401256,0.397696812 6.18758915,1.15367904 L7.07971983,2.24286671 L5.34203556,4.36033352 L4.02354523,2.74446629 Z M10.4368542,1.14293048 C11.1068479,0.394113958 11.9094072,0.0179142708 12.8445322,0.0179142708 L16.5026263,0.0179142708 C16.5277063,0.0143314167 16.5527862,0.0250799792 16.5707005,0.0394113958 C16.5886148,0.0573256667 16.5957805,0.0824056458 16.5921976,0.111068479 L16.5921976,2.45067225 C16.5921976,2.47575223 16.5850319,2.49724935 16.5707005,2.51516362 C16.5527862,2.53666075 16.5277063,2.54740931 16.5026263,2.54382646 L13.0308406,2.54382646 C12.8660293,2.5402436 12.7083837,2.61548354 12.6008981,2.74446629 L10.0427402,5.85796656 L12.6116467,8.99296396 C12.7155494,9.11119815 12.8696122,9.18285523 13.0272577,9.17927238 L16.4990434,9.17927238 C16.5241234,9.17568952 16.5527862,9.19002094 16.5671177,9.20793521 C16.5814491,9.22943233 16.5921976,9.25809517 16.5886148,9.28317515 L16.5886148,11.6227789 C16.5886148,11.6478589 16.5814491,11.669356 16.5671177,11.6872703 C16.5492034,11.7087674 16.5241234,11.719516 16.4990434,11.7159331 L12.8445322,11.7159331 C11.9094072,11.7159331 11.1140136,11.3361506 10.4476027,10.5801684 L8.31938737,7.98259908 L6.191172,10.5801684 C5.52117827,11.3361506 4.71861894,11.7159331 3.783494,11.7159331 L0.121817042,11.7159331 C0.0967370625,11.719516 0.0680742292,11.7051846 0.0537428125,11.6872703 C0.0358285417,11.6657732 0.0286628333,11.6371103 0.0322456875,11.6120304 L0.0322456875,9.27242658 C0.0322456875,9.2473466 0.0394113958,9.22584948 0.0537428125,9.20793521 C0.0716570833,9.18643808 0.0967370625,9.17568952 0.121817042,9.17927237 L3.59360273,9.17927237 C3.75841402,9.17927237 3.9160596,9.10403244 4.02354523,8.97863254 L6.535126,5.91170937 L10.4368542,1.14293048 Z" id="Shape"></path>
                        </g>
                    </g>
                </g>
            </g>
        </g>
    </g>
</svg>