<svg width="26" height="26" viewBox="0 0 26 26" xmlns="http://www.w3.org/2000/svg">
    <g fill-rule="nonzero" fill="none">
        <circle fill="#00A478" cx="13" cy="13" r="13"/>
        <path fill="#FFF" d="M11.44 11.76V8.52H7.16V5.68h11.96v2.88h-4.28v3.2z"/>
        <path d="M13.04 10.48c4.48 0 6.8 1.24 7.08 1.64-.28.4-2.56 1-7.08 1-4.48 0-6.8-.6-7.08-1 .28-.44 2.6-1.64 7.08-1.64zm0-.32c-4.28 0-7.72.88-7.72 1.96s3.44 1.96 7.72 1.96c4.28 0 7.72-.88 7.72-1.96s-3.44-1.96-7.72-1.96z" fill="#FFF"/>
        <path d="M14.84 12.76v-2.24c-.56-.04-1.16-.08-1.76-.08-.56 0-1.08 0-1.6.04v2.24c.48 0 1.04.04 1.6.04.6.04 1.2.04 1.76 0zM13.04 14.08c-.56 0-1.08 0-1.6-.04V20h3.36v-6c-.56.04-1.16.08-1.76.08z" fill="#FFF"/>
    </g>
</svg>
