<?xml version="1.0" encoding="UTF-8"?>
<svg width="26px" height="26px" viewBox="0 0 26 26" version="1.1" xmlns="http://www.w3.org/2000/svg" xmlns:xlink="http://www.w3.org/1999/xlink">
    <title>B312EF60-BAEB-491F-A052-EBFA1A9108E0</title>
    <g id="⇢-Styleguide" stroke="none" stroke-width="1" fill="none" fill-rule="evenodd">
        <g id="[Android]-⇢-Assets-⇢-Part-1-25" transform="translate(-328.000000, -878.000000)" fill="#FF007A">
            <g id="categories" transform="translate(0.000000, 177.000000)">
                <g id="category" transform="translate(0.000000, 692.000000)">
                    <g id="simple" transform="translate(328.000000, 9.000000)">
                        <g id="uniswap" transform="translate(1.625000, 0.000000)">
                            <path d="M8.84536082,5.91030928 C8.56391753,5.87010309 8.55051546,5.85670103 8.68453608,5.84329897 C8.93917526,5.80309278 9.52886598,5.85670103 9.9443299,5.95051546 C10.9092784,6.17835052 11.7804124,6.76804124 12.7051546,7.8 L12.9463918,8.0814433 L13.2948454,8.02783505 C14.7824742,7.78659794 16.3103093,7.9742268 17.5835052,8.56391753 C17.9319588,8.72474227 18.4814433,9.04639175 18.5484536,9.12680412 C18.5752577,9.15360825 18.6154639,9.32783505 18.642268,9.50206186 C18.7360825,10.1319588 18.6958763,10.6010309 18.4948454,10.9628866 C18.3876289,11.1639175 18.3876289,11.2175258 18.4546392,11.3917526 C18.5082474,11.5257732 18.6690722,11.6195876 18.8164948,11.6195876 C19.1381443,11.6195876 19.4731959,11.1103093 19.6340206,10.4 L19.7010309,10.1185567 L19.8216495,10.2525773 C20.5051546,11.0164948 21.0412371,12.0752577 21.1216495,12.8257732 L21.1484536,13.0268041 L21.0278351,12.8525773 C20.8268041,12.5443299 20.6391753,12.343299 20.3845361,12.1690722 C19.928866,11.8608247 19.4463918,11.7670103 18.1731959,11.7 C17.0206186,11.6329897 16.3639175,11.5391753 15.7206186,11.3247423 C14.6216495,10.9628866 14.0587629,10.4938144 12.7587629,8.76494845 C12.1824742,8.00103093 11.8206186,7.58556701 11.4587629,7.2371134 C10.6680412,6.47319588 9.87731959,6.07113402 8.84536082,5.91030928 Z" id="Path" fill-rule="nonzero"></path>
                            <path d="M18.8298969,7.61237113 C18.856701,7.10309278 18.9237113,6.76804124 19.071134,6.45979381 C19.1247423,6.33917526 19.1783505,6.23195876 19.1917526,6.23195876 C19.2051546,6.23195876 19.1783505,6.3257732 19.1381443,6.43298969 C19.0309278,6.72783505 19.0175258,7.14329897 19.0845361,7.61237113 C19.1783505,8.21546392 19.2185567,8.29587629 19.8618557,8.95257732 C20.156701,9.26082474 20.5051546,9.64948454 20.6391753,9.81030928 L20.8670103,10.1051546 L20.6391753,9.89072165 C20.357732,9.62268041 19.714433,9.11340206 19.5670103,9.04639175 C19.4731959,8.99278351 19.4597938,8.99278351 19.3927835,9.05979381 C19.3391753,9.11340206 19.3257732,9.19381443 19.3257732,9.58247423 C19.3123711,10.185567 19.2319588,10.5608247 19.0309278,10.9494845 C18.9237113,11.1505155 18.9103093,11.1103093 19.0041237,10.8824742 C19.071134,10.7082474 19.0845361,10.6278351 19.0845361,10.0515464 C19.0845361,8.88556701 18.9505155,8.60412371 18.1329897,8.13505155 C17.9319588,8.01443299 17.5835052,7.84020619 17.3824742,7.74639175 C17.1680412,7.65257732 17.0072165,7.57216495 17.0206186,7.57216495 C17.0474227,7.54536082 17.8381443,7.77319588 18.1463918,7.90721649 C18.6154639,8.09484536 18.6958763,8.10824742 18.7494845,8.09484536 C18.7896907,8.05463918 18.8164948,7.94742268 18.8298969,7.61237113 Z" id="Path" fill-rule="nonzero"></path>
                            <path d="M9.39484536,9.60927835 C8.83195876,8.83195876 8.47010309,7.6257732 8.55051546,6.72783505 L8.57731959,6.44639175 L8.71134021,6.47319588 C8.95257732,6.51340206 9.36804124,6.6742268 9.56907216,6.79484536 C10.1051546,7.11649485 10.3463918,7.55876289 10.5742268,8.65773196 C10.6412371,8.97938144 10.7350515,9.35463918 10.7752577,9.47525773 C10.842268,9.67628866 11.0969072,10.1453608 11.3113402,10.4402062 C11.4587629,10.6546392 11.3649485,10.7618557 11.0298969,10.7350515 C10.5206186,10.6814433 9.8371134,10.2123711 9.39484536,9.60927835 Z" id="Path" fill-rule="nonzero"></path>
                            <path d="M18.1463918,15.4391753 C15.4927835,14.3670103 14.5546392,13.442268 14.5546392,11.8742268 C14.5546392,11.6463918 14.5680412,11.4587629 14.5680412,11.4587629 C14.5814433,11.4587629 14.6752577,11.5391753 14.7958763,11.6329897 C15.3319588,12.0618557 15.9350515,12.2494845 17.6103093,12.4907216 C18.5886598,12.6381443 19.1515464,12.7453608 19.6608247,12.9195876 C21.2824742,13.4556701 22.2876289,14.5546392 22.528866,16.042268 C22.5958763,16.471134 22.5556701,17.2886598 22.4484536,17.7175258 C22.3546392,18.0525773 22.0865979,18.6690722 22.0195876,18.6824742 C22.0061856,18.6824742 21.9793814,18.6154639 21.9793814,18.5082474 C21.9525773,17.9453608 21.671134,17.4092784 21.2020619,16.9938144 C20.6391753,16.5113402 19.9154639,16.1494845 18.1463918,15.4391753 Z" id="Path" fill-rule="nonzero"></path>
                            <path d="M16.2701031,15.8814433 C16.243299,15.6804124 16.1762887,15.4257732 16.1360825,15.3185567 L16.0690722,15.1175258 L16.1896907,15.2649485 C16.3639175,15.4659794 16.4979381,15.7072165 16.6185567,16.042268 C16.7123711,16.2969072 16.7123711,16.3773196 16.7123711,16.7927835 C16.7123711,17.1948454 16.6989691,17.2886598 16.6185567,17.5164948 C16.4845361,17.8783505 16.3237113,18.1329897 16.0556701,18.414433 C15.5731959,18.9103093 14.943299,19.1783505 14.0453608,19.2989691 C13.8845361,19.3123711 13.428866,19.3525773 13.0268041,19.3793814 C12.0216495,19.4329897 11.3515464,19.5402062 10.7484536,19.7546392 C10.6680412,19.7814433 10.5876289,19.8082474 10.5742268,19.7948454 C10.5474227,19.7680412 10.9628866,19.5268041 11.2979381,19.3659794 C11.7670103,19.1381443 12.2494845,19.0175258 13.3082474,18.8298969 C13.8309278,18.7494845 14.3670103,18.642268 14.5010309,18.5886598 C15.8278351,18.1731959 16.4845361,17.1412371 16.2701031,15.8814433 Z" id="Path" fill-rule="nonzero"></path>
                            <path d="M17.4896907,18.0391753 C17.1412371,17.2752577 17.0608247,16.5515464 17.2484536,15.8680412 C17.2752577,15.8010309 17.3020619,15.7340206 17.328866,15.7340206 C17.3556701,15.7340206 17.4360825,15.7742268 17.5164948,15.8278351 C17.6773196,15.9350515 18.0123711,16.1226804 18.8701031,16.5917526 C19.9556701,17.1814433 20.5721649,17.6371134 21.0010309,18.1597938 C21.3762887,18.6154639 21.6041237,19.1381443 21.7113402,19.7814433 C21.7783505,20.143299 21.7381443,21.014433 21.6443299,21.3762887 C21.3494845,22.5154639 20.6793814,23.4268041 19.7010309,23.9494845 C19.5536082,24.0298969 19.4329897,24.0835052 19.4195876,24.0835052 C19.4061856,24.0835052 19.4597938,23.9494845 19.5402062,23.7886598 C19.8618557,23.1051546 19.9020619,22.4484536 19.6608247,21.7113402 C19.5134021,21.2556701 19.2051546,20.7061856 18.5886598,19.7814433 C17.8515464,18.7092784 17.6773196,18.4278351 17.4896907,18.0391753 Z" id="Path" fill-rule="nonzero"></path>
                            <path d="M7.50515464,22.1402062 C8.49690722,21.3092784 9.71649485,20.7195876 10.842268,20.5319588 C11.3247423,20.4515464 12.128866,20.4783505 12.571134,20.5989691 C13.2814433,20.7865979 13.9247423,21.1886598 14.2597938,21.6845361 C14.5814433,22.1670103 14.728866,22.5824742 14.8762887,23.5072165 C14.9298969,23.8690722 14.9969072,24.2443299 15.0103093,24.3247423 C15.1175258,24.8072165 15.3319588,25.1824742 15.6,25.3835052 C16.0154639,25.6917526 16.7391753,25.7051546 17.4494845,25.4371134 C17.5701031,25.3969072 17.6773196,25.356701 17.6773196,25.3701031 C17.7041237,25.3969072 17.342268,25.6381443 17.1010309,25.7587629 C16.7659794,25.9329897 16.4979381,25.9865979 16.1360825,25.9865979 C15.4927835,25.9865979 14.943299,25.6515464 14.5010309,24.9814433 C14.4072165,24.8474227 14.2195876,24.4587629 14.0587629,24.0969072 C13.5896907,23.0113402 13.3484536,22.6896907 12.7989691,22.3278351 C12.3164948,22.0195876 11.7,21.9525773 11.2309278,22.1804124 C10.614433,22.4752577 10.4536082,23.2659794 10.8824742,23.7484536 C11.056701,23.9494845 11.3783505,24.1103093 11.6463918,24.1505155 C12.142268,24.2175258 12.571134,23.828866 12.571134,23.3329897 C12.571134,23.0113402 12.4505155,22.8237113 12.128866,22.6762887 C11.7,22.4886598 11.2309278,22.7030928 11.2443299,23.1185567 C11.2443299,23.2927835 11.3247423,23.4 11.4989691,23.4804124 C11.6061856,23.5340206 11.6061856,23.5340206 11.5257732,23.5206186 C11.1371134,23.4402062 11.043299,22.957732 11.3515464,22.6494845 C11.7268041,22.2742268 12.5175258,22.4350515 12.785567,22.957732 C12.8927835,23.1721649 12.9061856,23.6010309 12.8123711,23.8690722 C12.5845361,24.4587629 11.9412371,24.7670103 11.2845361,24.5927835 C10.842268,24.4721649 10.6546392,24.3515464 10.1185567,23.8020619 C9.18041237,22.8371134 8.8185567,22.6494845 7.47835052,22.4484536 L7.22371134,22.4082474 L7.50515464,22.1402062 Z" id="Path" fill-rule="nonzero"></path>
                            <path d="M0.455670103,0.57628866 C3.57835052,4.36907216 8.38969072,10.2659794 8.63092784,10.5876289 C8.83195876,10.8556701 8.75154639,11.1103093 8.41649485,11.2979381 C8.22886598,11.4051546 7.84020619,11.5123711 7.65257732,11.5123711 C7.43814433,11.5123711 7.18350515,11.4051546 7.00927835,11.2309278 C6.88865979,11.1103093 6.36597938,10.3463918 5.18659794,8.51030928 C4.28865979,7.10309278 3.52474227,5.9371134 3.51134021,5.92371134 C3.45773196,5.89690722 3.45773196,5.89690722 5.09278351,8.8185567 C6.12474227,10.6546392 6.45979381,11.3113402 6.45979381,11.3917526 C6.45979381,11.5659794 6.40618557,11.6597938 6.19175258,11.9010309 C5.82989691,12.3030928 5.66907216,12.7587629 5.54845361,13.7103093 C5.41443299,14.7690722 5.05257732,15.5195876 4.02061856,16.7927835 C3.41752577,17.543299 3.32371134,17.6773196 3.17628866,17.985567 C2.98865979,18.3608247 2.93505155,18.5752577 2.90824742,19.057732 C2.8814433,19.5670103 2.93505155,19.8886598 3.08247423,20.371134 C3.21649485,20.8 3.36391753,21.0814433 3.7257732,21.6309278 C4.03402062,22.1134021 4.22164948,22.4752577 4.22164948,22.6092784 C4.22164948,22.7164948 4.24845361,22.7164948 4.73092784,22.6092784 C5.88350515,22.3412371 6.83505155,21.885567 7.35773196,21.3226804 C7.67938144,20.9742268 7.75979381,20.7865979 7.75979381,20.3041237 C7.75979381,19.9958763 7.74639175,19.928866 7.66597938,19.7412371 C7.53195876,19.4463918 7.27731959,19.2051546 6.72783505,18.8298969 C6.00412371,18.3340206 5.69587629,17.9319588 5.61546392,17.3958763 C5.54845361,16.9402062 5.62886598,16.6319588 6.03092784,15.7876289 C6.44639175,14.9164948 6.55360825,14.5546392 6.62061856,13.6701031 C6.66082474,13.1072165 6.72783505,12.8793814 6.88865979,12.7051546 C7.0628866,12.5175258 7.21030928,12.4505155 7.6257732,12.3969072 C8.30927835,12.3030928 8.75154639,12.128866 9.1,11.7938144 C9.40824742,11.5123711 9.54226804,11.2309278 9.5556701,10.8154639 L9.56907216,10.5072165 L9.39484536,10.3195876 C8.76494845,9.59587629 0.0402061856,0 -2.63461128e-16,0 C-0.0134020619,0 0.201030928,0.254639175 0.455670103,0.57628866 Z M4.57010309,19.6340206 C4.71752577,19.3793814 4.6371134,19.057732 4.39587629,18.8969072 C4.16804124,18.7494845 3.81958763,18.8164948 3.81958763,19.0175258 C3.81958763,19.071134 3.84639175,19.1247423 3.92680412,19.1515464 C4.04742268,19.2185567 4.06082474,19.285567 3.96701031,19.4329897 C3.87319588,19.5804124 3.87319588,19.714433 3.99381443,19.8082474 C4.1814433,19.9556701 4.43608247,19.8752577 4.57010309,19.6340206 Z" id="Shape"></path>
                            <path d="M9.99793814,12.5845361 C9.67628866,12.6783505 9.36804124,13.0268041 9.2742268,13.3752577 C9.22061856,13.5896907 9.24742268,13.9783505 9.34123711,14.0989691 C9.48865979,14.2865979 9.62268041,14.3402062 9.99793814,14.3402062 C10.7350515,14.3402062 11.3649485,14.0185567 11.4319588,13.6298969 C11.4989691,13.3082474 11.2175258,12.8659794 10.828866,12.6649485 C10.6278351,12.557732 10.2123711,12.5175258 9.99793814,12.5845361 Z M10.8556701,13.2546392 C10.9628866,13.0938144 10.9226804,12.9195876 10.7216495,12.7989691 C10.3597938,12.571134 9.81030928,12.7587629 9.81030928,13.1072165 C9.81030928,13.2814433 10.0917526,13.4690722 10.3597938,13.4690722 C10.5340206,13.4690722 10.7752577,13.3618557 10.8556701,13.2546392 Z" id="Shape"></path>
                        </g>
                    </g>
                </g>
            </g>
        </g>
    </g>
</svg>