<svg width="26" height="26" viewBox="0 0 26 26" xmlns="http://www.w3.org/2000/svg">
    <g fill-rule="nonzero" fill="none">
        <path d="M13 26c7.204 0 13-5.796 13-13S20.204 0 13 0 0 5.796 0 13s5.796 13 13 13z" fill="#2775CA"/>
        <path d="M16.575 15.058c0-1.896-1.137-2.546-3.412-2.816-1.626-.217-1.95-.65-1.95-1.409 0-.758.541-1.245 1.625-1.245.975 0 1.516.325 1.787 1.137.054.162.217.27.38.27h.866a.37.37 0 0 0 .379-.378v-.055a2.706 2.706 0 0 0-2.438-2.22v-1.3c0-.217-.162-.38-.433-.434h-.812c-.217 0-.38.163-.434.434v1.245c-1.625.217-2.654 1.3-2.654 2.655 0 1.787 1.084 2.491 3.359 2.762 1.516.271 2.004.596 2.004 1.463 0 .866-.759 1.462-1.788 1.462-1.408 0-1.896-.596-2.058-1.408-.054-.217-.217-.325-.38-.325h-.92a.37.37 0 0 0-.38.379v.054c.217 1.354 1.084 2.33 2.871 2.6v1.3c0 .217.163.38.434.434h.812c.217 0 .38-.163.434-.434v-1.3c1.625-.27 2.708-1.408 2.708-2.87z" fill="#FFF"/>
        <path d="M10.238 20.746c-4.225-1.517-6.392-6.23-4.821-10.4.812-2.275 2.6-4.008 4.82-4.821.217-.108.325-.27.325-.542v-.758c0-.217-.108-.38-.324-.433-.055 0-.163 0-.217.054-5.146 1.625-7.963 7.096-6.338 12.241a9.744 9.744 0 0 0 6.338 6.338c.216.108.433 0 .487-.217.055-.054.055-.108.055-.216v-.759c0-.162-.163-.379-.325-.487zm5.741-16.9c-.216-.109-.433 0-.487.216-.055.055-.055.109-.055.217v.758c0 .217.163.434.325.542 4.226 1.517 6.392 6.23 4.821 10.4-.812 2.275-2.6 4.009-4.82 4.821-.217.108-.325.27-.325.542v.758c0 .217.108.38.324.433.055 0 .163 0 .217-.054 5.146-1.625 7.963-7.096 6.338-12.241a9.824 9.824 0 0 0-6.338-6.392z" fill="#FFF"/>
    </g>
</svg>
