<?xml version="1.0" encoding="UTF-8"?>
<svg width="26px" height="26px" viewBox="0 0 26 26" version="1.1" xmlns="http://www.w3.org/2000/svg" xmlns:xlink="http://www.w3.org/1999/xlink">
    <title>B5CA0510-AD4A-467E-B947-F422E85067B4</title>
    <g id="⇢-Styleguide" stroke="none" stroke-width="1" fill="none" fill-rule="evenodd">
        <g id="[Android]-⇢-Assets-⇢-Part-1-25" transform="translate(-328.000000, -1928.000000)">
            <g id="categories" transform="translate(0.000000, 177.000000)">
                <g id="category" transform="translate(0.000000, 1742.000000)">
                    <g id="yearn-finance-yfi-logo" transform="translate(328.000000, 9.000000)">
                        <path d="M13,0 C20.1786,0 26,5.8214 26,13 C26,20.1786 20.1786,26 13,26 C5.8214,26 0,20.1786 0,13 C0,5.8214 5.8214,0 13,0 Z" id="SVGID" fill="#006AE3"></path>
                        <polygon id="SVGID-2" fill="#FFFFFF" fill-rule="nonzero" points="12.4644 18.4808 12.4644 7.6648 13.6422 7.6648 13.6422 18.4808"></polygon>
                        <path d="M18.46,11.2684 L14.8226,12.233 L14.0114,8.4578 L15.093,8.2134 L15.5194,10.0022 C15.5194,10.0022 16.5022,8.3902 15.1918,6.721 C14.4196,5.863 14.053,5.8266 13.1872,5.6914 C12.4254,5.5822 10.6548,5.8396 10.127,7.9066 C9.9034,9.2378 10.1556,10.2232 11.8716,11.5128 L11.7754,12.948 C11.7754,12.948 9.8592,11.5986 9.3652,10.6522 C8.983,9.9034 8.3278,8.424 9.5108,6.3648 C10.1478,5.3352 11.4036,4.3472 13.6162,4.4512 C14.729,4.498 17.446,5.8578 17.0248,9.035 C16.952,9.6304 16.6426,10.4234 16.6426,10.4234 L18.135,10.0906 L18.46,11.2684 Z" id="SVGID-3" fill="#FFFFFF" fill-rule="nonzero"></path>
                        <path d="M16.3826,19.7314 C15.717,20.7428 14.4352,21.697 12.2278,21.5358 C11.115,21.4604 8.437,20.0278 8.9414,16.8636 C9.0298,16.2708 9.36,15.4882 9.36,15.4882 L7.8598,15.7794 L7.566,14.5964 L11.2294,13.728 L11.9418,17.524 L10.8524,17.7398 L10.4728,15.938 C10.4728,15.938 9.4484,17.5214 10.712,19.227 C11.4608,20.1058 11.8248,20.15 12.6906,20.3086 C13.4472,20.4386 15.2256,20.2254 15.808,18.174 C16.0654,16.8506 15.8392,15.8574 14.1596,14.521 L14.2948,13.0884 C14.2948,13.0884 16.1746,14.4872 16.6426,15.4466 C17.0014,16.2084 17.6176,17.706 16.3826,19.7314 L16.3826,19.7314 Z" id="SVGID-4" fill="#FFFFFF" fill-rule="nonzero"></path>
                    </g>
                </g>
            </g>
        </g>
    </g>
</svg>